<!--
  - Copyright OpenSearch Contributors
  - SPDX-License-Identifier: Apache-2.0
  -->

<svg xmlns="http://www.w3.org/2000/svg" width="14" height="14" viewBox="0 0 14 14">
  <path d="M12 1H2C1.44772 1 1 1.44771 1 2V4.5C1 4.77614 0.776154 5 0.5 5C0.223846 5 0 4.77614 0 4.5V2C0 0.895432 0.895416 0 2 0H12C13.1046 0 14 0.895432 14 2V4.5C14 4.77614 13.7762 5 13.5 5C13.2238 5 13 4.77614 13 4.5V2C13 1.44771 12.5523 1 12 1Z"/>
  <path d="M0.5 9C0.776154 9 1 9.22386 1 9.5V12C1 12.5523 1.44772 13 2 13H12C12.5523 13 13 12.5523 13 12V9.5C13 9.22386 13.2238 9 13.5 9C13.7762 9 14 9.22386 14 9.5V12C14 13.1046 13.1046 14 12 14H2C0.895416 14 0 13.1046 0 12V9.5C0 9.22386 0.223846 9 0.5 9Z"/>
  <path d="M9.48239 3.96814C9.4231 3.75061 9.22549 3.5997 9 3.5997C8.77451 3.5997 8.57693 3.75061 8.51761 3.96814L7.36194 8.60587L6.4472 6.77638C6.36252 6.60699 6.18939 6.49998 6 6.49998H0.5C0.223846 6.49998 0 6.72385 0 6.99998C0 7.27614 0.223846 7.49998 0.5 7.49998H5.69098L7.0528 10.2236C7.14548 10.409 7.34299 10.518 7.54926 10.4976C7.75555 10.4771 7.92783 10.3315 7.98239 10.1316L9 6L10.0176 10.1316C10.0722 10.3315 10.2444 10.4771 10.4507 10.4976C10.657 10.518 10.8545 10.409 10.9472 10.2236L12.309 7.49998H13.5C13.7762 7.49998 14 7.27614 14 6.99998C14 6.72385 13.7762 6.49998 13.5 6.49998H12C11.8106 6.49998 11.6375 6.60699 11.5528 6.77638L10.638 8.60587L9.48239 3.96814Z"/>
</svg>
