<!--
  - SPDX-License-Identifier: Apache-2.0
  -
  - The OpenSearch Contributors require contributions made to
  - this file be licensed under the Apache-2.0 license or a
  - compatible open source license.
  -
  - Modifications Copyright OpenSearch Contributors. See
  - GitHub history for details.
  -->
<!--
  - Copyright (C) 2004 Remix Icon
  -
  - Licensed under the Apache License, Version 2.0 (the "License");
  - you may not use this file except in compliance with the License.
  - You may obtain a copy of the License at
  -
  -         http://www.apache.org/licenses/LICENSE-2.0
  -
  - Unless required by applicable law or agreed to in writing, software
  - distributed under the License is distributed on an "AS IS" BASIS,
  - WITHOUT WARRANTIES OR CONDITIONS OF ANY KIND, either express or implied.
  - See the License for the specific language governing permissions and
  - limitations under the License.
  -->

<svg xmlns="http://www.w3.org/2000/svg" viewBox="0 0 16 16">
  <path d="M8.667 14v1.333H7.333V14H2a.667.667 0 0 1-.667-.667V2.666C1.333 2.298 1.632 2 2 2h4a2.66 2.66 0 0 1 2 .902A2.66 2.66 0 0 1 10 2h4c.368 0 .667.298.667.666v10.667A.667.667 0 0 1 14 14H8.667zm4.666-1.333V3.333H10c-.736 0-1.333.597-1.333 1.334v8h4.666zm-6 0v-8c0-.737-.597-1.334-1.333-1.334H2.667v9.334h4.667z"/>
</svg>
