<svg width="16" height="16" viewBox="0 0 16 16" fill="none" xmlns="http://www.w3.org/2000/svg">
<path d="M3.83333 5.13133V1.59019C3.83333 1.26424 4.10694 1 4.44444 1C4.78195 1 5.05556 1.26424 5.05556 1.59019V5.13133C5.05556 5.45728 4.78195 5.72152 4.44444 5.72152C4.10694 5.72152 3.83333 5.45728 3.83333 5.13133Z" fill="#2A3947"/>
<path d="M6.27778 2.77057C6.61528 2.77057 6.88889 3.03481 6.88889 3.36076C6.88889 3.68671 6.61528 3.95095 6.27778 3.95095H2.61111C2.2736 3.95095 2 3.68671 2 3.36076C2 3.03481 2.2736 2.77057 2.61111 2.77057H6.27778Z" fill="#2A3947"/>
<path d="M8.45725 10.7773C8.26632 10.5929 7.9559 10.5929 7.76497 10.7773L4.65332 13.7825L4.62229 13.8044C4.54553 13.843 4.44463 13.7915 4.44444 13.6995V7.49209C4.44444 7.16614 4.17084 6.9019 3.83333 6.9019C3.49583 6.9019 3.22222 7.16614 3.22222 7.49209V13.6995C3.22243 14.8561 4.67058 15.4349 5.51747 14.617L8.11111 12.1122L10.7048 14.617L10.8707 14.7542C11.7276 15.3601 12.9998 14.7837 13 13.6995V3.83337C13 2.9207 12.2334 2.18038 11.2884 2.18038H8.72222C8.38471 2.18038 8.11111 2.44462 8.11111 2.77057C8.11111 3.09652 8.38471 3.36076 8.72222 3.36076H11.2884L11.3875 3.36998C11.6103 3.414 11.7778 3.6052 11.7778 3.83337V13.6995L11.7718 13.7363C11.7454 13.8156 11.6362 13.8474 11.5689 13.7825L8.45725 10.7773Z" fill="#2A3947"/>
</svg>
