<!--
  - Copyright OpenSearch Contributors
  - SPDX-License-Identifier: Apache-2.0
  -->

<svg viewBox="0 0 16 16" width="16" height="16" xmlns="http://www.w3.org/2000/svg">
  <path d="m4.4604 14.923c-0.37205-0.1555-0.61427-0.5193-0.61427-0.9226v-1.619h-0.84615c-1.1046 0-2-0.8955-2-2v-7.381c0-1.1046 0.89543-2 2-2h10c1.1046 0 2 0.89543 2 2v7.381c0 1.1045-0.8954 2-2 2h-5.0896l-2.3618 2.3308c-0.28703 0.2832-0.7161 0.3664-1.0882 0.2108zm0.38573-2.5416c0-0.5523-0.44771-1-1-1h-0.84615c-0.55228 0-1-0.4478-1-1v-7.381c0-0.55228 0.44772-1 1-1h10c0.5523 0 1 0.44772 1 1v7.381c0 0.5522-0.4477 1-1 1h-5.0896c-0.26293 0-0.51528 0.1035-0.70242 0.2882l-2.3618 2.3308v-1.619z" clip-rule="evenodd" fill-rule="evenodd"/>
</svg>
