<!--
  - Copyright OpenSearch Contributors
  - SPDX-License-Identifier: Apache-2.0
  -->

<svg viewBox="0 0 16 16" xmlns="http://www.w3.org/2000/svg">
  <path d="m11.54 14.923c0.372-0.1556 0.6142-0.5194 0.6142-0.9226v-1.6191h0.8462c1.1046 0 2-0.8954 2-2v-7.3809c0-1.1046-0.8954-2-2-2h-10c-1.1046 0-2 0.89543-2 2v7.3809c0 1.1046 0.89543 2 2 2h5.0896l2.3618 2.3308c0.287 0.2833 0.7161 0.3664 1.0882 0.2109zm-0.3858-2.5417c0-0.5523 0.4478-1 1-1h0.8462c0.5523 0 1-0.4477 1-1v-7.3809c0-0.55229-0.4477-1-1-1h-10c-0.55229 0-1 0.44771-1 1v7.3809c0 0.5523 0.44771 1 1 1h5.0896c0.26293 0 0.51528 0.1036 0.70242 0.2883l2.3617 2.3308v-1.6191z" clip-rule="evenodd" fill-rule="evenodd"/>
</svg>
