<!--
  - Copyright OpenSearch Contributors
  - SPDX-License-Identifier: Apache-2.0
  -->

<svg viewBox="0 0 16 16" xmlns="http://www.w3.org/2000/svg">
  <path d="m6.9091 9.7992 4.7406-4.6559c0.1969-0.1935 0.5135-0.19064 0.707 0.00636 0.1935 0.19702 0.1907 0.51358-0.0064 0.70708l-5.0909 5c-0.19449 0.1911-0.5062 0.1911-0.70068 0l-2.9091-2.8571c-0.19702-0.1935-0.19989-0.51007-0.00638-0.70708 0.19348-0.19702 0.51007-0.19987 0.70706-0.00638l2.5588 2.513z"/>
  <path d="m8 16c-4.4183 0-8-3.5817-8-8 0-4.4183 3.5817-8 8-8 4.4183 0 8 3.5817 8 8 0 4.4183-3.5817 8-8 8zm0-1c-3.866 0-7-3.134-7-7s3.134-7 7-7 7 3.134 7 7-3.134 7-7 7z" clip-rule="evenodd" fill-rule="evenodd"/>
</svg>
