<!--
  - Copyright OpenSearch Contributors
  - SPDX-License-Identifier: Apache-2.0
  -->

<svg xmlns="http://www.w3.org/2000/svg" viewBox="0 0 16 16">
    <path d="m8 15c3.866 0 7-3.134 7-7 0-3.866-3.134-7-7-7-3.866 0-7 3.134-7 7 0 3.866 3.134 7 7 7zm0 1c4.4183 0 8-3.5817 8-8 0-4.4183-3.5817-8-8-8-4.4183 0-8 3.5817-8 8 0 4.4183 3.5817 8 8 8z" clip-rule="evenodd" fill-rule="evenodd"/>
    <path d="m11.854 4.8536c0.1952-0.19526 0.1952-0.51184 0-0.7071-0.1953-0.19527-0.5119-0.19527-0.7072 0l-3.1464 3.1464-3.1464-3.1464c-0.19526-0.19527-0.51184-0.19527-0.7071 0-0.19527 0.19526-0.19527 0.51184 0 0.7071l3.1464 3.1464-3.1464 3.1464c-0.19527 0.1953-0.19527 0.5119 0 0.7072 0.19526 0.1952 0.51184 0.1952 0.7071 0l3.1464-3.1465 3.1464 3.1465c0.1953 0.1952 0.5119 0.1952 0.7072 0 0.1952-0.1953 0.1952-0.5119 0-0.7072l-3.1465-3.1464 3.1465-3.1464z"/>
</svg>
