<!--
  - Copyright OpenSearch Contributors
  - SPDX-License-Identifier: Apache-2.0
  -->
<svg width="16" height="16" viewBox="0 0 16 16" xmlns="http://www.w3.org/2000/svg">
  <path d="M3 1H13C14.1046 1 15 1.89543 15 3V13C15 14.1046 14.1046 15 13 15H3C1.89543 15 1 14.1046 1 13V3C1 1.89543 1.89543 1 3 1ZM3 2C2.44772 2 2 2.44772 2 3V13C2 13.5523 2.44772 14 3 14H13C13.5523 14 14 13.5523 14 13V3C14 2.44772 13.5523 2 13 2H3Z" />
  <path d="M3 3.5C3 3.22386 3.22386 3 3.5 3H6.5C6.77614 3 7 3.22386 7 3.5V12.5C7 12.7761 6.77614 13 6.5 13H3.5C3.22386 13 3 12.7761 3 12.5V3.5Z" />
</svg>
