<svg width="16" height="16" viewBox="0 0 16 16" xmlns="http://www.w3.org/2000/svg">
<path d="M7.18653 13.5283L7.15332 13.584C7.07512 13.6784 6.92488 13.6784 6.84668 13.584L6.81348 13.5283L6.74414 13.3535L7 13.4541L7.25489 13.3535L7.18653 13.5283ZM6.81348 2.47167C6.88007 2.30284 7.11994 2.30284 7.18653 2.47167L8.21875 5.09081C8.52369 5.86398 9.13602 6.4763 9.90918 6.78124L12.3535 7.74413L12.4541 7.99999L12.3535 8.25487L9.90918 9.21874L9.76563 9.27928C9.06031 9.60063 8.5046 10.1844 8.21875 10.9092L7.25489 13.3535L7 13.4541L6.74414 13.3535L5.78125 10.9092C5.49541 10.1844 4.9397 9.60063 4.23438 9.27928L4.09082 9.21874L1.47168 8.18651C1.30285 8.11993 1.30285 7.88005 1.47168 7.81346L1.64551 7.74413L4.09082 6.78124C4.8156 6.49539 5.39936 5.93969 5.72071 5.23436L5.78125 5.09081L6.81348 2.47167ZM6.71094 5.45799C6.32975 6.42427 5.58885 7.20147 4.64844 7.62987L4.45801 7.71092L3.72461 7.99999L4.45801 8.28905C5.48864 8.69563 6.30436 9.51135 6.71094 10.542L7 11.2744L7.28907 10.542C7.69564 9.51135 8.51137 8.69563 9.542 8.28905L10.2744 7.99999L9.542 7.71092C8.57573 7.32973 7.79852 6.58884 7.37012 5.64842L7.28907 5.45799L7 4.7246L6.71094 5.45799ZM12.5283 7.81346C12.6972 7.88005 12.6972 8.11993 12.5283 8.18651L12.3535 8.25487L12.4541 7.99999L12.3535 7.74413L12.5283 7.81346Z" />
<path d="M12.3633 2.8662C12.5871 3.26708 12.9419 3.58249 13.374 3.75292L13.7637 3.90721C13.8481 3.94051 13.8481 4.05947 13.7637 4.09276L13.6768 4.12694L13.374 4.24706L13.1856 4.33299C12.7595 4.55434 12.4249 4.92308 12.2471 5.37401L12.127 5.67674L12.0928 5.76366L12.0772 5.79198C12.038 5.83953 11.962 5.83953 11.9229 5.79198L11.9072 5.76366L11.8721 5.67674L11.7529 5.37401C11.5751 4.92308 11.2405 4.55434 10.8145 4.33299L10.626 4.24706L10.2363 4.09276C10.1519 4.05947 10.1519 3.94051 10.2363 3.90721L10.3223 3.87206L10.626 3.75292C11.058 3.58255 11.4119 3.26688 11.6357 2.8662L12 2.72264L12.3633 2.8662ZM11.9072 2.23632C11.9405 2.1519 12.0595 2.1519 12.0928 2.23632L12.2471 2.62596C12.2799 2.70928 12.3201 2.78891 12.3633 2.8662L12 2.72264L11.6357 2.8662C11.6456 2.84863 11.6577 2.83234 11.667 2.81444L11.7529 2.62596L11.9072 2.23632Z" />
<path d="M12.4258 9.18749C12.4522 9.1204 12.5478 9.1204 12.5742 9.18749C12.9781 10.2115 13.7885 11.0219 14.8125 11.4258C14.8796 11.4522 14.8796 11.5477 14.8125 11.5742L14.7422 11.6035C13.7516 12.0163 12.9688 12.8122 12.5742 13.8125L12.5615 13.8349C12.5304 13.8727 12.4696 13.8727 12.4385 13.8349L12.4258 13.8125C12.0471 12.8525 11.3113 12.0799 10.377 11.6543L10.1875 11.5742C10.1204 11.5477 10.1204 11.4522 10.1875 11.4258C11.2115 11.0219 12.0219 10.2115 12.4258 9.18749ZM12.5 10.9707C12.3371 11.1602 12.1602 11.3371 11.9707 11.5C12.1601 11.6628 12.3372 11.839 12.5 12.0283C12.6626 11.8392 12.8392 11.6626 13.0283 11.5C12.839 11.3372 12.6628 11.16 12.5 10.9707Z" />
</svg>
