<!--
  - Copyright OpenSearch Contributors
  - SPDX-License-Identifier: Apache-2.0
  -->

<svg viewBox="0 0 12 12" xmlns="http://www.w3.org/2000/svg">
  <path d="m10.282 7.3995c-0.30318 0.93657-0.90512 1.7479-1.7136 2.3096-0.80843 0.56168-1.7788 0.84288-2.7623 0.80028s-1.9259-0.4064-2.6828-1.0359c-0.75689-0.62945-1.2865-1.4897-1.5076-2.449l0.85125-0.16875-1.62-1.6762-0.8475 2.1675 0.89625-0.17625c0.2503 1.126 0.86448 2.1382 1.7476 2.8802 0.88313 0.7421 1.9861 1.1726 3.1384 1.2251 1.1523 0.0525 2.2898-0.276 3.2368-0.9346 0.94695-0.6587 1.6506-1.6109 2.0022-2.7095l-0.7387-0.2325zm0.8362-2.5388c-0.2503-1.126-0.8644-2.1382-1.7476-2.8803-0.88313-0.74204-1.9861-1.1726-3.1384-1.2251-1.1523-0.052494-2.2898 0.27597-3.2368 0.93464-0.94695 0.65866-1.6506 1.6108-2.0023 2.7094l0.7125 0.2325c0.30318-0.93657 0.90512-1.7479 1.7136-2.3096 0.80843-0.56171 1.7788-0.84283 2.7623-0.80028 0.9835 0.04256 1.9259 0.40645 2.6828 1.0359s1.2865 1.4897 1.5076 2.449l-0.85125 0.16875 1.62 1.6725 0.8588-2.1638-0.8813 0.17625z"/>
  <path d="m3.4195 5.9297c0.91439-2.3279 4.2466-2.3279 5.161 0-0.91439 2.3279-4.2466 2.3279-5.161 0zm5.935-0.06261c-1.0596-3.2444-5.6495-3.2444-6.7091 0-0.01329 0.04068-0.01329 0.08453 0 0.12521 1.0596 3.2444 5.6495 3.2444 6.7091 0 0.01329-0.04068 0.01329-0.08453 0-0.12521z" clip-rule="evenodd" fill-rule="evenodd"/>
  <path d="m6 5.55c-0.20711 0-0.375 0.16789-0.375 0.375s0.16789 0.375 0.375 0.375 0.375-0.16789 0.375-0.375-0.16789-0.375-0.375-0.375zm-1.125 0.375c0-0.62132 0.50368-1.125 1.125-1.125s1.125 0.50368 1.125 1.125-0.50368 1.125-1.125 1.125-1.125-0.50368-1.125-1.125z" clip-rule="evenodd" fill-rule="evenodd"/>
</svg>
