<!--
  - Copyright OpenSearch Contributors
  - SPDX-License-Identifier: Apache-2.0
  -->

<svg viewBox="0 0 12 12" xmlns="http://www.w3.org/2000/svg">
  <path d="m10.282 7.3995c-0.30318 0.93657-0.90512 1.7479-1.7136 2.3096-0.80843 0.56168-1.7788 0.84288-2.7623 0.80028s-1.9259-0.4064-2.6828-1.0359c-0.75689-0.62945-1.2865-1.4897-1.5076-2.449l0.85125-0.16875-1.62-1.6762-0.8475 2.1675 0.89625-0.17625c0.2503 1.126 0.86448 2.1382 1.7476 2.8802 0.88313 0.7421 1.9861 1.1726 3.1384 1.2251 1.1523 0.0525 2.2898-0.276 3.2368-0.9346 0.94695-0.6587 1.6506-1.6109 2.0022-2.7095l-0.7387-0.2325zm0.8362-2.5388c-0.2503-1.126-0.8644-2.1382-1.7476-2.8803-0.88313-0.74204-1.9861-1.1726-3.1384-1.2251-1.1523-0.052494-2.2898 0.27597-3.2368 0.93464-0.94695 0.65866-1.6506 1.6108-2.0023 2.7094l0.7125 0.2325c0.30318-0.93657 0.90512-1.7479 1.7136-2.3096 0.80843-0.56171 1.7788-0.84283 2.7623-0.80028 0.9835 0.04256 1.9259 0.40645 2.6828 1.0359s1.2865 1.4897 1.5076 2.449l-0.85125 0.16875 1.62 1.6725 0.8588-2.1638-0.8813 0.17625z"/>
  <path d="m9.0417 8.132c0.14632 0.14901 0.14413 0.38841-0.0049 0.53471-0.14901 0.14628-0.38841 0.14409-0.53472-0.0049l-1.3546-1.3794c-0.14451-0.14715-0.14442-0.38295 1.8e-4 -0.53 0.29792-0.30295 0.46745-0.70866 0.46745-1.1421 0-0.89973-0.72949-1.6291-1.6294-1.6291s-1.6294 0.72941-1.6294 1.6291c0 0.89972 0.7295 1.6291 1.6294 1.6291 0.20881 0 0.37813 0.16926 0.37813 0.3781s-0.16932 0.37809-0.37813 0.37809c-1.3176 0-2.3857-1.0679-2.3857-2.3853s1.0681-2.3853 2.3857-2.3853c1.3176 0 2.3857 1.0679 2.3857 2.3853 0 0.50594-0.1586 0.98757-0.44428 1.3867l1.1146 1.135z"/>
</svg>
