<!--
  - Copyright OpenSearch Contributors
  - SPDX-License-Identifier: Apache-2.0
  -->

<svg viewBox="0 0 12 12" xmlns="http://www.w3.org/2000/svg">
  <path d="m10.282 7.3995c-0.30318 0.93657-0.90512 1.7479-1.7136 2.3096-0.80843 0.56168-1.7788 0.84288-2.7623 0.80028s-1.9259-0.4064-2.6828-1.0359c-0.75689-0.62945-1.2865-1.4897-1.5076-2.449l0.85125-0.16875-1.62-1.6762-0.8475 2.1675 0.89625-0.17625c0.2503 1.126 0.86448 2.1382 1.7476 2.8802 0.88313 0.7421 1.9861 1.1726 3.1384 1.2251 1.1523 0.0525 2.2898-0.276 3.2368-0.9346 0.94695-0.6587 1.6506-1.6109 2.0022-2.7095l-0.7387-0.2325zm0.8362-2.5388c-0.2503-1.126-0.8644-2.1382-1.7476-2.8803-0.88313-0.74204-1.9861-1.1726-3.1384-1.2251-1.1523-0.052494-2.2898 0.27597-3.2368 0.93464-0.94695 0.65866-1.6506 1.6108-2.0023 2.7094l0.7125 0.2325c0.30318-0.93657 0.90512-1.7479 1.7136-2.3096 0.80843-0.56171 1.7788-0.84283 2.7623-0.80028 0.9835 0.04256 1.9259 0.40645 2.6828 1.0359s1.2865 1.4897 1.5076 2.449l-0.85125 0.16875 1.62 1.6725 0.8588-2.1638-0.8813 0.17625z"/>
  <path d="m9.0478 3.9768-0.24403 1.9523c-0.14535 1.1628-0.82592 2.1908-1.8396 2.7787l-0.96417 0.55922-0.96417-0.55922c-1.0137-0.58793-1.6942-1.6159-1.8396-2.7787l-0.24403-1.9523 0.34399-0.26143 0.45381 0.59712 0.19044 1.5235c0.11628 0.93024 0.66073 1.7526 1.4717 2.223l0.58788 0.34097 0.58788-0.34097c0.81094-0.47035 1.3554-1.2928 1.4717-2.223l0.19044-1.5235 0.45381-0.59712 0.34399 0.26143zm-0.7978 0.33569s-0.9375-0.7125-2.25-0.7125-2.25 0.7125-2.25 0.7125l-0.45381-0.59712 8.3e-4 -6.3e-4 9.2e-4 -7e-4 0.00211-0.00159 0.0053-0.00396 0.01483-0.01089c0.01176-0.00853 0.02725-0.01958 0.04634-0.03277 0.03816-0.02636 0.09087-0.06141 0.15701-0.10217 0.13197-0.08132 0.31939-0.18659 0.55318-0.29111 0.46455-0.20768 1.1328-0.42156 1.9233-0.42156s1.4587 0.21388 1.9233 0.42156c0.23379 0.10452 0.42121 0.20979 0.55318 0.29111 0.06614 0.04076 0.11885 0.07581 0.15701 0.10217 0.01909 0.01319 0.03458 0.02424 0.04634 0.03277l0.01483 0.01089 0.0053 0.00396 0.00211 0.00159 0.00175 0.00133-0.45381 0.59712z" clip-rule="evenodd" fill-rule="evenodd"/>
</svg>
