<!--
  - Copyright OpenSearch Contributors
  - SPDX-License-Identifier: Apache-2.0
  -->

<svg viewBox="0 0 12 12" xmlns="http://www.w3.org/2000/svg">
  <path d="M5.09536 2.90343C5.18787 2.72938 5.37007 2.62182 5.56715 2.62491L6.61706 2.64134C6.81341 2.64441 6.99162 2.7568 7.079 2.93266L7.49858 3.77711L8.24113 3.71432C8.4346 3.69796 8.62131 3.78971 8.72655 3.95288L9.25683 4.77498C9.37366 4.95609 9.36792 5.19021 9.24237 5.36539L8.85135 5.91097L9.26655 6.45858C9.39585 6.62911 9.4087 6.86105 9.29902 7.04482L8.79909 7.88252C8.69858 8.05093 8.51259 8.14928 8.31683 8.13753L7.53176 8.09043L7.04872 9.07892C6.96066 9.25914 6.77761 9.37343 6.57703 9.37343H5.49543C5.29485 9.37343 5.11179 9.25914 5.02373 9.07892L4.57028 8.15097L3.7301 8.22699C3.53235 8.24489 3.34143 8.14969 3.23672 7.98099L2.70581 7.12561C2.59054 6.9399 2.6024 6.70219 2.73558 6.52887L3.21593 5.90375L2.83008 5.36539C2.70453 5.19021 2.6988 4.9561 2.81562 4.77498L3.3459 3.95288C3.45115 3.78971 3.63785 3.69796 3.83132 3.71432L4.62849 3.78173L5.09536 2.90343ZM5.69301 3.37697L5.22105 4.26486C5.12242 4.45042 4.92264 4.55928 4.71324 4.54157L3.90286 4.47305L3.52885 5.05289L3.92282 5.60259C4.05761 5.79067 4.05337 6.04482 3.91239 6.22831L3.42515 6.86239L3.80075 7.46753L4.65707 7.39005C4.87396 7.37042 5.08046 7.48675 5.17607 7.68242L5.6359 8.62343H6.43655L6.92378 7.62636C7.01684 7.4359 7.21531 7.3201 7.42691 7.3328L8.22517 7.38068L8.57722 6.79078L8.15349 6.23192C8.01445 6.04853 8.01105 5.79596 8.14512 5.6089L8.54361 5.05289L8.16959 4.47305L7.40938 4.53733C7.19476 4.55548 6.99082 4.4407 6.89498 4.24781L6.46832 3.3891L5.69301 3.37697Z" clip-rule="evenodd" fill-rule="evenodd"/>
  <path d="m10.282 7.3995c-0.30318 0.93657-0.90512 1.7479-1.7136 2.3096-0.80843 0.56168-1.7788 0.84288-2.7623 0.80028s-1.9259-0.4064-2.6828-1.0359c-0.75689-0.62945-1.2865-1.4897-1.5076-2.449l0.85125-0.16875-1.62-1.6762-0.8475 2.1675 0.89625-0.17625c0.2503 1.126 0.86448 2.1382 1.7476 2.8802 0.88313 0.7421 1.9861 1.1726 3.1384 1.2251 1.1523 0.0525 2.2898-0.276 3.2368-0.9346 0.94695-0.6587 1.6506-1.6109 2.0022-2.7095l-0.7387-0.2325zm0.8362-2.5388c-0.2503-1.126-0.8644-2.1382-1.7476-2.8803-0.88313-0.74204-1.9861-1.1726-3.1384-1.2251-1.1523-0.052494-2.2898 0.27597-3.2368 0.93464-0.94695 0.65866-1.6506 1.6108-2.0023 2.7094l0.7125 0.2325c0.30318-0.93657 0.90512-1.7479 1.7136-2.3096 0.80843-0.56171 1.7788-0.84283 2.7623-0.80028 0.9835 0.04256 1.9259 0.40645 2.6828 1.0359s1.2865 1.4897 1.5076 2.449l-0.85125 0.16875 1.62 1.6725 0.8588-2.1638-0.8813 0.17625z"/>
  <path d="m6 5.625c-0.20711 0-0.375 0.16789-0.375 0.375s0.16789 0.375 0.375 0.375 0.375-0.16789 0.375-0.375-0.16789-0.375-0.375-0.375zm-1.125 0.375c0-0.62132 0.50368-1.125 1.125-1.125s1.125 0.50368 1.125 1.125-0.50368 1.125-1.125 1.125-1.125-0.50368-1.125-1.125z" clip-rule="evenodd" fill-rule="evenodd"/>
</svg>
