<!--
  - Copyright OpenSearch Contributors
  - SPDX-License-Identifier: Apache-2.0
  -->

<svg xmlns="http://www.w3.org/2000/svg" viewBox="0 0 16 16">
    <path d="m8 0c0.27614 0 0.5 0.22386 0.5 0.5v5c0 0.27614-0.22386 0.5-0.5 0.5s-0.5-0.22386-0.5-0.5v-5c0-0.27614 0.22386-0.5 0.5-0.5z"/>
    <path d="m10.55 0.9316c0.1152-0.25094 0.4121-0.36094 0.663-0.24569 2.6362 1.2107 4.7873 3.7512 4.7873 7.1226 0 4.5121-3.5699 8.1915-8 8.1915-4.4301 0-8-3.6794-8-8.1915 0-3.3728 2.1695-5.9122 4.7904-7.1222 0.25071-0.11574 0.54779-0.006327 0.66353 0.24439 0.11574 0.25071 0.00633 0.54779-0.24439 0.66353-2.3487 1.0843-4.2096 3.3142-4.2096 6.2142 0 3.9837 3.1458 7.1915 7 7.1915 3.8542 0 7-3.2078 7-7.1915 0-2.9015-1.8454-5.1303-4.2046-6.2138-0.251-0.11525-0.361-0.41211-0.2457-0.66305z"/>
</svg>
