<!--
  - SPDX-License-Identifier: Apache-2.0
  -
  - The OpenSearch Contributors require contributions made to
  - this file be licensed under the Apache-2.0 license or a
  - compatible open source license.
  -
  - Modifications Copyright OpenSearch Contributors. See
  - GitHub history for details.
  -->

<svg viewBox="0 0 16 16" xmlns="http://www.w3.org/2000/svg">
  <path d="m7.8145 12c-0.47461 0-0.81446-0.3398-0.81446-0.8145 0-0.4804 0.33985-0.8203 0.81446-0.8203 0.4746 0 0.80859 0.3399 0.80859 0.8203 0 0.4747-0.33399 0.8145-0.80859 0.8145zm-1.9143-6.0828c0.0585-1.1487 0.85442-1.9172 2.1476-1.9172 1.2183 0 2.0914 0.75879 2.0914 1.8002 0 0.73616-0.36078 1.3034-1.0308 1.7064-0.55968 0.33052-0.7164 0.56047-0.7164 1.0223l1e-5 0.97112-0.1 0.1h-0.8219l-0.1-0.1v-1.0972c-0.0049-0.64593 0.30178-1.1036 0.98711-1.5138 0.52662-0.32233 0.70835-0.59052 0.70835-1.0466 0-0.53598-0.41653-0.90976-1.0507-0.90976-0.65234 0-1.064 0.3733-1.112 0.99727l-0.0997 0.09233h-0.80312l-0.09987-0.10508z" />
  <path d="m8 14c3.3137 0 6-2.6863 6-6 0-3.3137-2.6863-6-6-6-3.3137 0-6 2.6863-6 6 0 3.3137 2.6863 6 6 6zm0 1c3.866 0 7-3.134 7-7 0-3.866-3.134-7-7-7-3.866 0-7 3.134-7 7 0 3.866 3.134 7 7 7z" fill-rule="evenodd"/>
</svg>
