<!--
  - Copyright OpenSearch Contributors
  - SPDX-License-Identifier: Apache-2.0
  -->

<svg viewBox="0 0 16 16" xmlns="http://www.w3.org/2000/svg">
  <path d="M4.17972 7C3.70743 7 3.3008 7.2944 3.20818 7.7034L2.01924 12.9534C2.00644 13.0099 2 13.0674 2 13.125C2 13.6082 2.44359 14 2.99078 14H14.009C14.0743 14 14.1394 13.9943 14.2033 13.983C14.7399 13.8882 15.0879 13.4273 14.9806 12.9534L13.7916 7.7034C13.699 7.2944 13.2924 7 12.8201 7H4.17972ZM5 6V7H12V6H12.8253C13.771 6 14.5852 6.60563 14.7707 7.44699L15.9611 12.847C16.176 13.8218 15.4792 14.7701 14.4047 14.965C14.2766 14.9883 14.1463 15 14.0156 15H2.98397C1.88826 15 1 14.1941 1 13.2C1 13.0815 1.01291 12.9632 1.03853 12.847L2.22891 7.44699C2.41438 6.60563 3.22863 6 4.17436 6H5Z"/>
  <path d="m5.9896 1.3987c-0.05595-0.27042-0.32052-0.44428-0.59094-0.38833-0.27041 0.05595-0.44427 0.32052-0.38832 0.59093l2.0575 9.9447c0.32736 1.5823 2.5811 1.5997 2.9329 0.0227l1.8456-8.2735 0.7536 1.0048c0.1657 0.22091 0.4791 0.26568 0.7 0.1 0.2209-0.16569 0.2657-0.47909 0.1-0.7l-1.5-2c-0.1657-0.22091-0.4791-0.26569-0.7-0.1l-2 1.5c-0.22091 0.16568-0.26569 0.47908-0.1 0.7 0.16568 0.22091 0.47909 0.26568 0.7 0.1l1.0651-0.79882-1.8403 8.2498c-0.11726 0.5257-0.86851 0.5198-0.97763-0.0076l-2.0575-9.9447z"/>
</svg>
