<!--
  - Copyright OpenSearch Contributors
  - SPDX-License-Identifier: Apache-2.0
  -->

<svg viewBox="0 0 16 16" width="16" height="16" xmlns="http://www.w3.org/2000/svg">
  <path d="m10.509 2.351c-0.2301-0.26546-0.64976-0.23897-0.84462 0.05332l-0.23139 0.34708-0.53886 1.0777c-0.35878 0.71756-1.0922 1.1708-1.8944 1.1708h-1c-0.27614 0-0.5-0.22386-0.5-0.5s0.22386-0.5 0.5-0.5h1c0.42348 0 0.81061-0.23926 1-0.61803l0.55279-1.1056c0.00927-0.01854 0.01968-0.03649 0.03118-0.05374l0.24866-0.37298c0.56118-0.84177 1.7698-0.91806 2.4324-0.15355 0.3508 0.40479 0.5276 0.93171 0.492 1.4662l-0.0081 0.12096c-0.036 0.54045-0.141 1.0741-0.3123 1.588l-0.0429 0.12879h1.7724c0.3013 0 0.598 0.07417 0.8638 0.21597 0.9089 0.4847 1.2411 1.6221 0.7362 2.5198l-0.1183 0.21025c0.1935 0.66974 0.012 1.4013-0.4907 1.904l-0.0952 0.09526c0.246 0.98977-0.2495 2.0085-1.1611 2.4335l-0.1102 0.3307c-0.2569 0.7707-0.9782 1.2906-1.7906 1.2906h-0.921c-0.78721 0-1.5636-0.1833-2.2677-0.5353-0.73354-0.3668-1.4031-0.8494-1.983-1.4293l-0.18182-0.1818c-0.19527-0.1953-0.19527-0.5119 0-0.7072 0.19526-0.1952 0.51184-0.1952 0.7071 0l0.18182 0.1819c0.50391 0.5039 1.0858 0.9232 1.7232 1.2419 0.56523 0.2827 1.1885 0.4298 1.8205 0.4298h0.921c0.382 0 0.7211-0.2444 0.8419-0.6068l0.1788-0.5365c0.0529-0.1586 0.1774-0.2831 0.336-0.336 0.5733-0.1911 0.8924-0.8018 0.7219-1.3815l-0.0524-0.17824c-0.0553-0.18779-0.0035-0.39075 0.1349-0.52916l0.2889-0.28893c0.2733-0.27328 0.3501-0.68664 0.1931-1.0398-0.0642-0.14435-0.0563-0.31052 0.0211-0.4482l0.2303-0.40937c0.2299-0.4087 0.0786-0.92651-0.3351-1.1472-0.1211-0.06455-0.2562-0.09832-0.3933-0.09832h-1.9604c-0.5901 0-1.0067-0.57808-0.8201-1.1378l0.1024-0.30717c0.1443-0.43305 0.2327-0.88277 0.2631-1.3382l0.0081-0.12096c0.0181-0.27148-0.0717-0.53912-0.2499-0.74473z" clip-rule="evenodd" fill-rule="evenodd"/>
  <path d="m4 4.6474c0-0.11046-0.08954-0.2-0.2-0.2h-1.6c-0.11046 0-0.2 0.08954-0.2 0.2v6.7052c0 0.1105 0.08954 0.2 0.2 0.2h1.6c0.11046 0 0.2-0.0895 0.2-0.2v-6.7052zm-2-1.1474c-0.55228 0-1 0.42415-1 0.94737v7.1052c0 0.5232 0.44772 0.9474 1 0.9474h2c0.55228 0 1-0.4242 1-0.9474v-7.1052c0-0.52322-0.44772-0.94737-1-0.94737h-2z" clip-rule="evenodd" fill-rule="evenodd"/>
</svg>
