<!--
  - Copyright OpenSearch Contributors
  - SPDX-License-Identifier: Apache-2.0
  -->

<svg viewBox="0 0 16 16" xmlns="http://www.w3.org/2000/svg">
  <path d="m10.509 13.649c-0.2301 0.2654-0.64976 0.2389-0.84462-0.0534l-0.23139-0.347-0.53886-1.0778c-0.35878-0.7175-1.0922-1.1708-1.8944-1.1708h-1c-0.27614 0-0.5 0.2239-0.5 0.5s0.22386 0.5 0.5 0.5h1c0.42348 0 0.81061 0.2393 1 0.618l0.55279 1.1056c0.00927 0.0186 0.01968 0.0365 0.03118 0.0538l0.24866 0.3729c0.56118 0.8418 1.7698 0.9181 2.4324 0.1536 0.3508-0.4048 0.5276-0.9317 0.492-1.4662l-0.0081-0.121c-0.036-0.5404-0.141-1.074-0.3123-1.5879l-0.0429-0.1288h1.7724c0.3013 0 0.598-0.0742 0.8638-0.216 0.9089-0.4847 1.2411-1.622 0.7362-2.5198l-0.1183-0.21025c0.1935-0.66974 0.012-1.4013-0.4907-1.904l-0.0952-0.09526c0.246-0.98975-0.2495-2.0084-1.1611-2.4335l-0.1102-0.33074c-0.2569-0.77072-0.9782-1.2906-1.7906-1.2906h-0.921c-0.78721 0-1.5636 0.18328-2.2677 0.53533-0.73354 0.36676-1.4031 0.84939-1.983 1.4293l-0.18182 0.18182c-0.19527 0.19526-0.19527 0.51184 0 0.7071 0.19526 0.19527 0.51184 0.19527 0.7071 0l0.18182-0.18182c0.50391-0.50391 1.0858-0.92328 1.7232-1.242 0.56523-0.28262 1.1885-0.42975 1.8205-0.42975h0.921c0.382 0 0.7211 0.24442 0.8419 0.6068l0.1788 0.53651c0.0529 0.15862 0.1774 0.28309 0.336 0.33596 0.5733 0.19111 0.8924 0.80181 0.7219 1.3816l-0.0524 0.1782c-0.0553 0.18779-0.0035 0.39075 0.1349 0.52916l0.2889 0.28893c0.2733 0.27328 0.3501 0.68664 0.1931 1.0398-0.0642 0.14435-0.0563 0.31052 0.0211 0.4482l0.2303 0.40938c0.2299 0.40869 0.0786 0.9265-0.3351 1.1472-0.1211 0.06455-0.2562 0.09832-0.3933 0.09832h-1.9604c-0.5901 0-1.0067 0.5781-0.8201 1.1379l0.1024 0.3071c0.1443 0.4331 0.2327 0.8828 0.2631 1.3383l0.0081 0.1209c0.0181 0.2715-0.0717 0.5391-0.2499 0.7448z" clip-rule="evenodd" fill-rule="evenodd"/>
  <path d="m4 4.6474c0-0.11046-0.08954-0.2-0.2-0.2h-1.6c-0.11046 0-0.2 0.08954-0.2 0.2v6.7052c0 0.1105 0.08954 0.2 0.2 0.2h1.6c0.11046 0 0.2-0.0895 0.2-0.2v-6.7052zm-2-1.1474c-0.55228 0-1 0.42415-1 0.94737v7.1052c0 0.5232 0.44772 0.9474 1 0.9474h2c0.55228 0 1-0.4242 1-0.9474v-7.1052c0-0.52322-0.44772-0.94737-1-0.94737h-2z" clip-rule="evenodd" fill-rule="evenodd"/>
</svg>
