<!--
  - Copyright OpenSearch Contributors
  - SPDX-License-Identifier: Apache-2.0
  -->

<svg viewBox="0 0 16 16" width="16" height="16" xmlns="http://www.w3.org/2000/svg">
  <path d="M4.17972 7C3.70743 7 3.3008 7.2944 3.20818 7.7034L2.01924 12.9534C2.00644 13.0099 2 13.0674 2 13.125C2 13.6083 2.44359 14 2.99078 14H14.009C14.0743 14 14.1394 13.9943 14.2033 13.983C14.7399 13.8882 15.0879 13.4273 14.9806 12.9534L13.7916 7.7034C13.699 7.2944 13.2924 7 12.8201 7H4.17972ZM6 6V7H11V6H12.8253C13.771 6 14.5852 6.60563 14.7707 7.44699L15.9611 12.847C16.176 13.8218 15.4792 14.7701 14.4047 14.965C14.2766 14.9883 14.1463 15 14.0156 15H2.98397C1.88826 15 1 14.1941 1 13.2C1 13.0815 1.01291 12.9632 1.03853 12.847L2.22891 7.44699C2.41438 6.60563 3.22863 6 4.17436 6H6Z"/>
  <path d="m5.477 2.6183c0.21081-0.17837 0.52629-0.15208 0.70467 0.05872l2.3683 2.7989 2.3683-2.7989c0.1784-0.2108 0.4939-0.23709 0.7047-0.05872s0.2371 0.49386 0.0587 0.70466l-2.4767 2.927 2.4767 2.927c0.1784 0.21081 0.1521 0.52629-0.0587 0.70467-0.2108 0.1784-0.5263 0.1521-0.7047-0.05873l-2.3683-2.7989-2.3683 2.7989c-0.17838 0.21083-0.49386 0.23713-0.70467 0.05873-0.2108-0.17838-0.23709-0.49386-0.05872-0.70467l2.4767-2.927-2.4767-2.927c-0.17837-0.2108-0.15208-0.52629 0.05872-0.70466z" clip-rule="evenodd" fill-rule="evenodd"/>
</svg>
