<!--
  - SPDX-License-Identifier: Apache-2.0
  -
  - The OpenSearch Contributors require contributions made to
  - this file be licensed under the Apache-2.0 license or a
  - compatible open source license.
  -
  - Modifications Copyright OpenSearch Contributors. See
  - GitHub history for details.
  -->

<svg xmlns="http://www.w3.org/2000/svg" width="16" height="16" viewBox="0 0 16 16">
  <path d="M10.5001 2C10.5001 2.02163 10.4994 2.0431 10.498 2.06438L12.0566 3.10345C12.1903 3.03723 12.3408 3 12.5001 3C13.0523 3 13.5001 3.44772 13.5001 4C13.5001 4.55228 13.0523 5 12.5001 5C11.9478 5 11.5001 4.55228 11.5001 4C11.5001 3.97837 11.5007 3.9569 11.5021 3.93562L9.9435 2.89655C9.80986 2.96277 9.65931 3 9.50006 3C9.41048 3 9.32365 2.98822 9.24104 2.96613L7.46619 4.74098C7.48828 4.82359 7.50006 4.91042 7.50006 5C7.50006 5.55228 7.05235 6 6.50006 6C5.94778 6 5.50006 5.55228 5.50006 5C5.50006 4.97837 5.50075 4.9569 5.5021 4.93562L3.9435 3.89655C3.80987 3.96277 3.65931 4 3.50006 4C2.94778 4 2.50006 3.55228 2.50006 3C2.50006 2.44772 2.94778 2 3.50006 2C4.05235 2 4.50006 2.44772 4.50006 3C4.50006 3.02163 4.49937 3.0431 4.49802 3.06438L6.05662 4.10345C6.19026 4.03722 6.34081 4 6.50006 4C6.58964 4 6.67647 4.01178 6.75908 4.03387L8.53393 2.25902C8.51184 2.17641 8.50006 2.08958 8.50006 2C8.50006 1.44772 8.94777 1 9.50006 1C10.0523 1 10.5001 1.44772 10.5001 2Z"/>
  <path d="M8.50006 9C8.50006 9.27614 8.2762 9.5 8.00006 9.5C7.72392 9.5 7.50006 9.27614 7.50006 9V8.5H5.50006V9C5.50006 9.27614 5.2762 9.5 5.00006 9.5C4.72392 9.5 4.50006 9.27614 4.50006 9V7.5H2.50006V9C2.50006 9.27614 2.2762 9.5 2.00006 9.5C1.72392 9.5 1.50006 9.27614 1.50006 9V7.2C1.50006 6.8134 1.81346 6.5 2.20006 6.5H4.80006C5.18666 6.5 5.50006 6.8134 5.50006 7.2V7.5H7.50006V6.2C7.50006 5.8134 7.81346 5.5 8.20006 5.5H10.8001C11.1867 5.5 11.5001 5.8134 11.5001 6.2V7H13.8001C14.1867 7 14.5001 7.3134 14.5001 7.7V14.5C14.5001 14.7761 14.2762 15 14.0001 15C13.7239 15 13.5001 14.7761 13.5001 14.5V8H11.5001V14.5C11.5001 14.7761 11.2762 15 11.0001 15C10.7239 15 10.5001 14.7761 10.5001 14.5V6.5H8.50006V9Z"/>
  <path fill-rule="evenodd" clip-rule="evenodd" d="M1.6 10C1.26863 10 1 10.2686 1 10.6V14.4609C1 14.7922 1.26863 15.0609 1.6 15.0609H9.07576C9.40713 15.0609 9.67576 14.7922 9.67576 14.4609V10.6C9.67576 10.2686 9.40713 10 9.07576 10H1.6ZM6.78384 10.723H7.36222V13.6872H8.88048V14.2656H6.78384V10.723ZM4.25341 10.7953H5.41018C5.88933 10.7953 6.27775 11.1837 6.27775 11.6629V12.3135C6.27775 12.7927 5.88933 13.1811 5.41018 13.1811H4.83179V14.3379H4.25341V10.7953ZM4.83179 12.6027H5.41018C5.56989 12.6027 5.69937 12.4733 5.69937 12.3135V11.6629C5.69937 11.5031 5.56989 11.3737 5.41018 11.3737H4.83179V12.6027ZM1.72298 14.3379V10.7953H2.87975C3.3589 10.7953 3.74732 11.1837 3.74732 11.6629V12.3135C3.74732 12.7927 3.3589 13.1811 2.87975 13.1811H2.30136V14.3379H1.72298ZM2.30136 12.6027H2.87975C3.03946 12.6027 3.16894 12.4733 3.16894 12.3135V11.6629C3.16894 11.5031 3.03946 11.3737 2.87975 11.3737H2.30136V12.6027Z"/>
</svg>
