<!--
  - SPDX-License-Identifier: Apache-2.0
  -
  - The OpenSearch Contributors require contributions made to
  - this file be licensed under the Apache-2.0 license or a
  - compatible open source license.
  -
  - Modifications Copyright OpenSearch Contributors. See
  - GitHub history for details.
  -->

<svg xmlns="http://www.w3.org/2000/svg" width="16" height="16" viewBox="0 0 16 16">
  <path d="M10.5 2C10.5 2.02163 10.4993 2.0431 10.498 2.06438L12.0566 3.10345C12.1902 3.03723 12.3408 3 12.5 3C13.0523 3 13.5 3.44772 13.5 4C13.5 4.55228 13.0523 5 12.5 5C11.9477 5 11.5 4.55228 11.5 4C11.5 3.97837 11.5007 3.9569 11.502 3.93562L9.94344 2.89655C9.80981 2.96277 9.65925 3 9.5 3C9.41042 3 9.32359 2.98822 9.24098 2.96613L7.46613 4.74098C7.48822 4.82359 7.5 4.91042 7.5 5C7.5 5.55228 7.05228 6 6.5 6C5.94772 6 5.5 5.55228 5.5 5C5.5 4.97837 5.50069 4.9569 5.50204 4.93562L3.94344 3.89655C3.80981 3.96277 3.65925 4 3.5 4C2.94772 4 2.5 3.55228 2.5 3C2.5 2.44772 2.94772 2 3.5 2C4.05228 2 4.5 2.44772 4.5 3C4.5 3.02163 4.49931 3.0431 4.49796 3.06438L6.05656 4.10345C6.1902 4.03722 6.34075 4 6.5 4C6.58958 4 6.67641 4.01178 6.75902 4.03387L8.53387 2.25902C8.51178 2.17641 8.5 2.08958 8.5 2C8.5 1.44772 8.94771 1 9.5 1C10.0523 1 10.5 1.44772 10.5 2Z"/>
  <path d="M8.5 6.5H10.5V14.5C10.5 14.7761 10.7239 15 11 15C11.2761 15 11.5 14.7761 11.5 14.5V8H13.5V14.5C13.5 14.7761 13.7239 15 14 15C14.2761 15 14.5 14.7761 14.5 14.5V7.7C14.5 7.3134 14.1866 7 13.8 7H11.5V6.2C11.5 5.8134 11.1866 5.5 10.8 5.5H8.2C7.8134 5.5 7.5 5.8134 7.5 6.2V7.5H5.5V7.2C5.5 6.8134 5.1866 6.5 4.8 6.5H2.2C1.8134 6.5 1.5 6.8134 1.5 7.2V9C1.5 9.27614 1.72386 9.5 2 9.5C2.27614 9.5 2.5 9.27614 2.5 9V7.5H4.5V9C4.5 9.27614 4.72386 9.5 5 9.5C5.27614 9.5 5.5 9.27614 5.5 9V8.5H7.5V9C7.5 9.27614 7.72386 9.5 8 9.5C8.27614 9.5 8.5 9.27614 8.5 9V6.5Z"/>
  <path fill-rule="evenodd" clip-rule="evenodd" d="M1.6 10C1.26863 10 1 10.2686 1 10.6V14.4609C1 14.7922 1.26863 15.0609 1.6 15.0609H9.07576C9.40714 15.0609 9.67576 14.7922 9.67576 14.4609V10.6C9.67576 10.2686 9.40713 10 9.07576 10H1.6ZM7.14533 13.398V10.723H7.72371V13.398C7.72371 13.5577 7.85319 13.6872 8.01291 13.6872H9.24197V14.2656H8.01291C7.53376 14.2656 7.14533 13.8772 7.14533 13.398ZM6.27775 13.7344V11.6629C6.27775 11.1837 5.88933 10.7953 5.41018 10.7953H5.12099C4.64184 10.7953 4.25341 11.1837 4.25341 11.6629V13.398C4.25341 13.8772 4.64184 14.2656 5.12099 14.2656H5.98856C6.08238 14.2656 6.20404 14.317 6.3252 14.3978C6.38107 14.435 6.4282 14.4727 6.46121 14.501C6.47756 14.515 6.49005 14.5264 6.49798 14.5338L6.50628 14.5417L6.50715 14.5425C6.5071 14.5424 6.50705 14.5424 6.71154 14.3379C6.91603 14.1334 6.91598 14.1334 6.91593 14.1333L6.91496 14.1323L6.91334 14.1307L6.9085 14.126L6.89262 14.111C6.87938 14.0986 6.8608 14.0817 6.83761 14.0618C6.79154 14.0224 6.72571 13.9697 6.64603 13.9165C6.55295 13.8545 6.42524 13.7811 6.27775 13.7344ZM5.12099 11.3737C4.96127 11.3737 4.83179 11.5032 4.83179 11.6629V13.398C4.83179 13.5577 4.96127 13.6872 5.12099 13.6872H5.69937V11.6629C5.69937 11.5032 5.56989 11.3737 5.41018 11.3737H5.12099ZM1.72298 14.2656V10.7953H2.73515C3.29416 10.7953 3.74732 11.2485 3.74732 11.8075V13.2534C3.74732 13.8124 3.29416 14.2656 2.73515 14.2656H1.72298ZM2.30136 11.3737V13.6872H2.73515C2.97472 13.6872 3.16894 13.493 3.16894 13.2534V11.8075C3.16894 11.5679 2.97472 11.3737 2.73515 11.3737H2.30136Z"/>
</svg>
