<!--
  - SPDX-License-Identifier: Apache-2.0
  -
  - The OpenSearch Contributors require contributions made to
  - this file be licensed under the Apache-2.0 license or a
  - compatible open source license.
  -
  - Modifications Copyright OpenSearch Contributors. See
  - GitHub history for details.
  -->

<svg xmlns="http://www.w3.org/2000/svg" width="16" height="16" viewBox="0 0 16 16">
  <path d="M10.5 2C10.5 2.02163 10.4993 2.0431 10.498 2.06438L12.0566 3.10345C12.1902 3.03723 12.3408 3 12.5 3C13.0523 3 13.5 3.44772 13.5 4C13.5 4.55228 13.0523 5 12.5 5C11.9477 5 11.5 4.55228 11.5 4C11.5 3.97837 11.5007 3.9569 11.502 3.93562L9.94344 2.89655C9.80981 2.96277 9.65925 3 9.5 3C9.41042 3 9.32359 2.98822 9.24098 2.96613L7.46613 4.74098C7.48822 4.82359 7.5 4.91042 7.5 5C7.5 5.55228 7.05228 6 6.5 6C5.94772 6 5.5 5.55228 5.5 5C5.5 4.97837 5.50069 4.9569 5.50204 4.93562L3.94344 3.89655C3.80981 3.96277 3.65925 4 3.5 4C2.94772 4 2.5 3.55228 2.5 3C2.5 2.44772 2.94772 2 3.5 2C4.05228 2 4.5 2.44772 4.5 3C4.5 3.02163 4.49931 3.0431 4.49796 3.06438L6.05656 4.10345C6.1902 4.03722 6.34075 4 6.5 4C6.58958 4 6.67641 4.01178 6.75902 4.03387L8.53387 2.25902C8.51178 2.17641 8.5 2.08958 8.5 2C8.5 1.44772 8.94771 1 9.5 1C10.0523 1 10.5 1.44772 10.5 2Z"/>
  <path d="M8.5 9C8.5 9.27614 8.27614 9.5 8 9.5C7.72386 9.5 7.5 9.27614 7.5 9V8.5H5.5V9C5.5 9.27614 5.27614 9.5 5 9.5C4.72386 9.5 4.5 9.27614 4.5 9V7.5H2.5V9C2.5 9.27614 2.27614 9.5 2 9.5C1.72386 9.5 1.5 9.27614 1.5 9V7.2C1.5 6.8134 1.8134 6.5 2.2 6.5H4.8C5.1866 6.5 5.5 6.8134 5.5 7.2V7.5H7.5V6.2C7.5 5.8134 7.8134 5.5 8.2 5.5H10.8C11.1866 5.5 11.5 5.8134 11.5 6.2V7H13.8C14.1866 7 14.5 7.3134 14.5 7.7V9C14.5 9.27614 14.2761 9.5 14 9.5C13.7239 9.5 13.5 9.27614 13.5 9V8H11.5V9C11.5 9.27614 11.2761 9.5 11 9.5C10.7239 9.5 10.5 9.27614 10.5 9V6.5H8.5V9Z"/>
  <path fill-rule="evenodd" clip-rule="evenodd" d="M1.6 10C1.26863 10 1 10.3152 1 10.7041V14.2959C1 14.6848 1.26863 15 1.6 15H14.4C14.7314 15 15 14.6848 15 14.2959V10.7041C15 10.3152 14.7314 10 14.4 10H1.6ZM12.5652 10.7143V13.3571C12.5652 13.8305 12.8922 14.2143 13.2956 14.2143H14.3304V13.6429H13.2956C13.1612 13.6429 13.0522 13.5149 13.0522 13.3571V10.7143H12.5652ZM11.8348 11.6429V13.6895C11.959 13.7356 12.0665 13.8081 12.1448 13.8694C12.2119 13.9219 12.2674 13.974 12.3061 14.013C12.3257 14.0326 12.3413 14.0493 12.3525 14.0615L12.3658 14.0764L12.3699 14.081L12.3713 14.0826L12.3721 14.0836C12.3721 14.0836 12.3722 14.0837 12.2 14.2857C12.0278 14.4877 12.0279 14.4878 12.0279 14.4878L12.0272 14.487L12.0202 14.4792C12.0135 14.4719 12.003 14.4607 11.9892 14.4468C11.9614 14.4189 11.9218 14.3817 11.8747 14.3449C11.7727 14.2651 11.6703 14.2143 11.5913 14.2143H10.8609C10.4575 14.2143 10.1304 13.8305 10.1304 13.3571V11.6429C10.1304 11.1695 10.4575 10.7857 10.8609 10.7857H11.1043C11.5078 10.7857 11.8348 11.1695 11.8348 11.6429ZM10.6174 11.6429C10.6174 11.4851 10.7264 11.3571 10.8609 11.3571H11.1043C11.2388 11.3571 11.3478 11.4851 11.3478 11.6429V13.6429H10.8609C10.7264 13.6429 10.6174 13.5149 10.6174 13.3571V11.6429ZM1.60869 10.7857V14.2857H2.09565V13.1429H2.58261C2.98601 13.1429 3.31304 12.7591 3.31304 12.2857V11.6429C3.31304 11.1695 2.98601 10.7857 2.58261 10.7857H1.60869ZM2.58261 12.5714H2.09565V11.3571H2.58261C2.71708 11.3571 2.82609 11.4851 2.82609 11.6429V12.2857C2.82609 12.4435 2.71708 12.5714 2.58261 12.5714ZM4.22609 14.2857L3.73913 14.2855V11.7857H4.22609V11.9534C4.33678 11.8917 4.4606 11.8571 4.5913 11.8571H4.89565V12.4286H4.5913C4.3896 12.4286 4.22609 12.6204 4.22609 12.8571V14.2857ZM7.87826 14.2857V12.6183L8.37566 13.202C8.47074 13.3136 8.6249 13.3136 8.71999 13.202L9.21739 12.6183V14.2857H9.70435V12.2735C9.70435 11.8916 9.31096 11.7004 9.08088 11.9704L8.54782 12.5959L8.01477 11.9704C7.78469 11.7004 7.3913 11.8916 7.3913 12.2735V14.2857H7.87826ZM5.9913 11.8571C5.58789 11.8571 5.26087 12.2409 5.26087 12.7143V13.3571C5.26087 13.8305 5.58789 14.2143 5.9913 14.2143H6.23478C6.63819 14.2143 6.96522 13.8305 6.96522 13.3571V12.7143C6.96522 12.2409 6.63819 11.8571 6.23478 11.8571H5.9913ZM5.74782 12.7143C5.74782 12.5565 5.85683 12.4286 5.9913 12.4286H6.23478C6.36925 12.4286 6.47826 12.5565 6.47826 12.7143V13.3571C6.47826 13.5149 6.36925 13.6429 6.23478 13.6429H5.9913C5.85683 13.6429 5.74782 13.5149 5.74782 13.3571V12.7143Z"/>
</svg>
