<!--
  - SPDX-License-Identifier: Apache-2.0
  -
  - The OpenSearch Contributors require contributions made to
  - this file be licensed under the Apache-2.0 license or a
  - compatible open source license.
  -
  - Modifications Copyright OpenSearch Contributors. See
  - GitHub history for details.
  -->

<svg xmlns="http://www.w3.org/2000/svg" width="16" height="16" viewBox="0 0 16 16">
  <path d="M10.5 2C10.5 2.02163 10.4993 2.0431 10.498 2.06438L12.0566 3.10345C12.1902 3.03723 12.3408 3 12.5 3C13.0523 3 13.5 3.44772 13.5 4C13.5 4.55228 13.0523 5 12.5 5C11.9477 5 11.5 4.55228 11.5 4C11.5 3.97837 11.5007 3.9569 11.502 3.93562L9.94344 2.89655C9.80981 2.96277 9.65925 3 9.5 3C9.41042 3 9.32359 2.98822 9.24098 2.96613L7.46613 4.74098C7.48822 4.82359 7.5 4.91042 7.5 5C7.5 5.55228 7.05228 6 6.5 6C5.94772 6 5.5 5.55228 5.5 5C5.5 4.97837 5.50069 4.9569 5.50204 4.93562L3.94344 3.89655C3.80981 3.96277 3.65925 4 3.5 4C2.94772 4 2.5 3.55228 2.5 3C2.5 2.44772 2.94772 2 3.5 2C4.05228 2 4.5 2.44772 4.5 3C4.5 3.02163 4.49931 3.0431 4.49796 3.06438L6.05656 4.10345C6.1902 4.03722 6.34075 4 6.5 4C6.58958 4 6.67641 4.01178 6.75902 4.03387L8.53387 2.25902C8.51178 2.17641 8.5 2.08958 8.5 2C8.5 1.44772 8.94771 1 9.5 1C10.0523 1 10.5 1.44772 10.5 2Z"/>
  <path d="M8.5 13C8.5 13.2761 8.27614 13.5 8 13.5C7.72386 13.5 7.5 13.2761 7.5 13V8.5H5.5V13C5.5 13.2761 5.27614 13.5 5 13.5C4.72386 13.5 4.5 13.2761 4.5 13V7.5H2.5V13C2.5 13.2761 2.27614 13.5 2 13.5C1.72386 13.5 1.5 13.2761 1.5 13V7.2C1.5 6.8134 1.8134 6.5 2.2 6.5H4.8C5.1866 6.5 5.5 6.8134 5.5 7.2V7.5H7.5V6.2C7.5 5.8134 7.8134 5.5 8.2 5.5H10.8C11.1866 5.5 11.5 5.8134 11.5 6.2V7H13.8C14.1866 7 14.5 7.3134 14.5 7.7V13C14.5 13.2761 14.2761 13.5 14 13.5C13.7239 13.5 13.5 13.2761 13.5 13V8H11.5V13C11.5 13.2761 11.2761 13.5 11 13.5C10.7239 13.5 10.5 13.2761 10.5 13V6.5H8.5V13Z"/>
  <path d="M0.5 14.5C0.5 14.2239 0.723858 14 1 14H15C15.2761 14 15.5 14.2239 15.5 14.5C15.5 14.7761 15.2761 15 15 15H1C0.723858 15 0.5 14.7761 0.5 14.5Z"/>
</svg>
