<!--
  - Copyright OpenSearch Contributors
  - SPDX-License-Identifier: Apache-2.0
  -->

<svg xmlns="http://www.w3.org/2000/svg" width="32" height="33" viewBox="0 0 32 33">
  <path fill-rule="evenodd" clip-rule="evenodd" d="M9 15H5V14H9V15Z"/>
  <path fill-rule="evenodd" clip-rule="evenodd" d="M17 8H13V7H17V8Z"/>
  <path fill-rule="evenodd" clip-rule="evenodd" d="M20 15H11V14H20V15Z"/>
  <path fill-rule="evenodd" clip-rule="evenodd" d="M28 8H19V7H28V8Z"/>
  <path fill-rule="evenodd" clip-rule="evenodd" d="M10 9V3C10 2.44771 10.4477 2 11 2H29C29.5523 2 30 2.44772 30 3V12C30 12.5523 29.5523 13 29 13H22V17H21V13V12V10H11H10H3V19H12V20H3C2.44772 20 2 19.5523 2 19V10C2 9.44771 2.44772 9 3 9H10ZM11 3H29V12H22V10C22 9.44772 21.5523 9 21 9H11V3Z"/>
  <path fill-rule="evenodd" clip-rule="evenodd" d="M19.7143 26.2857L20.5714 28H21.4286V27.1116C21.4286 26.7716 21.7252 26.1362 22.031 25.5714C22.1707 25.3133 22.3124 25.07 22.4286 24.8763C22.5831 24.6188 22.6925 24.4491 22.6925 24.4491C22.9395 24.041 23.1429 23.3322 23.1429 22.8608V18.8147C23.1429 18.0189 22.5381 17.3699 21.7791 17.3348C21.7577 17.3338 21.7361 17.3333 21.7144 17.3333C21.3197 17.3333 21 17.6649 21 18.0742V18.3702C21 18.2689 20.9902 18.1699 20.9715 18.0742C20.8904 17.6589 20.642 17.3055 20.3024 17.0879C20.1019 16.9595 19.8696 16.8784 19.6211 16.86C19.6047 16.8588 19.5882 16.8578 19.5716 16.8571C19.1769 16.8889 18.8572 17.2204 18.8572 17.6298V17.9258C18.8572 17.8244 18.8473 17.7254 18.8286 17.6298C18.747 17.2122 18.4961 16.8585 18.1533 16.6489C17.958 16.5294 17.7328 16.4568 17.4922 16.4459C17.4712 16.4449 17.45 16.4444 17.4287 16.4444C17.034 16.4444 16.7143 16.776 16.7143 17.1853V17.4813C16.7143 17.38 16.7045 17.281 16.6858 17.1853C16.6043 16.7685 16.3541 16.4153 16.0123 16.2055C15.7995 16.0749 15.5511 16 15.2859 16C14.8912 16 14.5714 16.3316 14.5714 16.7409V20.8889H13.7143V18.2222C13.6662 18.2222 13.6185 18.2243 13.5714 18.2283C13.2531 18.2555 12.9595 18.373 12.7143 18.5559C12.2817 18.8786 12 19.4052 12 20V23.0889C12 23.5666 12.307 24.173 12.6856 24.4544C12.6856 24.4544 15.4286 26.4098 15.4286 27.1116V28H18.8572L19.7143 26.2857ZM18.8571 21.1428V24.5714H19.7143V21.1428H18.8571ZM18 21.1428H17.1429V24.5714H18V21.1428ZM20.5715 21.1428V24.5714H21.4286V21.1428H20.5715ZM12.1051 25.2686L12.0971 25.2629L12.0891 25.257C11.7432 24.9999 11.4816 24.6406 11.3076 24.2949C11.1334 23.9489 11 23.5232 11 23.0889V20C11 18.5475 12.1086 17.3024 13.5714 17.2259V16.7409C13.5714 15.8139 14.3049 15 15.2859 15C15.8754 15 16.4058 15.2105 16.8194 15.5563C17.0069 15.4843 17.2118 15.4444 17.4287 15.4444C18.0131 15.4444 18.5392 15.6512 18.9512 15.9915C19.1204 15.9208 19.3022 15.8756 19.4914 15.8604L19.5515 15.8555L19.6118 15.858C20.1827 15.8809 20.7021 16.0977 21.1095 16.4435C21.2958 16.3725 21.4992 16.3333 21.7144 16.3333C23.0897 16.3333 24.1429 17.4787 24.1429 18.8147V22.8608C24.1429 23.2194 24.0693 23.6111 23.9721 23.9524C23.8746 24.2951 23.7315 24.6638 23.5479 24.967L23.5406 24.979M23.533 24.9908L23.5308 24.9943L23.5217 25.0086L23.4848 25.0669C23.4525 25.1183 23.4057 25.1934 23.3493 25.2861C23.236 25.4724 23.0864 25.7255 22.9379 25.9969C22.7878 26.2715 22.6479 26.5487 22.5482 26.7863C22.472 26.9679 22.4444 27.0694 22.4343 27.1063C22.4288 27.1263 22.4286 27.1272 22.4286 27.1116V29H19.9534L19.7143 28.5218L19.4752 29H14.4286V27.2755C14.3931 27.2266 14.3388 27.1594 14.2611 27.0741C14.0478 26.8403 13.7439 26.563 13.4135 26.2852C13.0883 26.0118 12.7601 25.7567 12.5114 25.5688C12.3875 25.4752 12.2846 25.3992 12.2132 25.347C12.1776 25.3209 12.1498 25.3008 12.1314 25.2875L12.1108 25.2727L12.1051 25.2686M14.4766 27.3513C14.4766 27.3513 14.4734 27.3463 14.4694 27.337C14.475 27.3467 14.4766 27.3513 14.4766 27.3513Z"/>
</svg>
