<!--
  - Copyright OpenSearch Contributors
  - SPDX-License-Identifier: Apache-2.0
  -->

<svg xmlns="http://www.w3.org/2000/svg" width="16" height="16" viewBox="0 0 16 16">
  <path d="M10.5 2C10.5 2.02163 10.4993 2.0431 10.498 2.06438L12.0566 3.10345C12.1902 3.03723 12.3408 3 12.5 3C13.0523 3 13.5 3.44772 13.5 4C13.5 4.55228 13.0523 5 12.5 5C11.9477 5 11.5 4.55228 11.5 4C11.5 3.97837 11.5007 3.9569 11.502 3.93562L9.94344 2.89655C9.80981 2.96277 9.65925 3 9.5 3C9.41042 3 9.32359 2.98822 9.24098 2.96613L7.46613 4.74098C7.48822 4.82359 7.5 4.91042 7.5 5C7.5 5.55228 7.05228 6 6.5 6C5.94772 6 5.5 5.55228 5.5 5C5.5 4.97837 5.50069 4.9569 5.50204 4.93562L3.94344 3.89655C3.80981 3.96277 3.65925 4 3.5 4C2.94772 4 2.5 3.55228 2.5 3C2.5 2.44772 2.94772 2 3.5 2C4.05228 2 4.5 2.44772 4.5 3C4.5 3.02163 4.49931 3.0431 4.49796 3.06438L6.05656 4.10345C6.1902 4.03722 6.34075 4 6.5 4C6.58958 4 6.67641 4.01178 6.75902 4.03387L8.53387 2.25902C8.51178 2.17641 8.5 2.08958 8.5 2C8.5 1.44772 8.94771 1 9.5 1C10.0523 1 10.5 1.44772 10.5 2Z"/>
  <path d="M8.5 9C8.5 9.27614 8.27614 9.5 8 9.5C7.72386 9.5 7.5 9.27614 7.5 9V8.5H5.5V9C5.5 9.27614 5.27614 9.5 5 9.5C4.72386 9.5 4.5 9.27614 4.5 9V7.5H2.5V9C2.5 9.27614 2.27614 9.5 2 9.5C1.72386 9.5 1.5 9.27614 1.5 9V7.2C1.5 6.8134 1.8134 6.5 2.2 6.5H4.8C5.1866 6.5 5.5 6.8134 5.5 7.2V7.5H7.5V6.2C7.5 5.8134 7.8134 5.5 8.2 5.5H10.8C11.1866 5.5 11.5 5.8134 11.5 6.2V7H13.8C14.1866 7 14.5 7.3134 14.5 7.7V14.5C14.5 14.7761 14.2761 15 14 15C13.7239 15 13.5 14.7761 13.5 14.5V8H11.5V14.5C11.5 14.7761 11.2761 15 11 15C10.7239 15 10.5 14.7761 10.5 14.5V6.5H8.5V9Z"/>
  <path fill-rule="evenodd" clip-rule="evenodd" d="M1.6 10C1.26863 10 1 10.2686 1 10.6V14.4609C1 14.7922 1.26863 15.0609 1.6 15.0609H9.07576C9.40713 15.0609 9.67576 14.7922 9.67576 14.4609V10.6C9.67576 10.2686 9.40713 10 9.07576 10H1.6ZM7.21763 10.723V13.398C7.21763 13.8772 7.60605 14.2656 8.0852 14.2656H9.31427V13.6872H8.0852C7.92549 13.6872 7.79601 13.5577 7.79601 13.398V10.723H7.21763ZM1.79528 11.8075C1.79528 11.2485 2.24844 10.7953 2.80745 10.7953H3.89192V11.3737H2.80745C2.56788 11.3737 2.37366 11.5679 2.37366 11.8075C2.37366 12.047 2.56788 12.2412 2.80745 12.2412C3.36646 12.2412 3.81962 12.6944 3.81962 13.2534C3.81962 13.8124 3.36646 14.2656 2.80745 14.2656H1.72298V13.6872H2.80745C3.04702 13.6872 3.24124 13.493 3.24124 13.2534C3.24124 13.0138 3.04702 12.8196 2.80745 12.8196C2.24844 12.8196 1.79528 12.3665 1.79528 11.8075ZM6.35005 11.6629V13.7344C6.49754 13.7811 6.62524 13.8545 6.71832 13.9165C6.79801 13.9696 6.86384 14.0223 6.90991 14.0618C6.9331 14.0817 6.95168 14.0986 6.96492 14.1109L6.9808 14.126L6.98564 14.1307L6.98726 14.1323L6.98822 14.1333C6.98828 14.1333 6.98833 14.1334 6.78384 14.3379C6.57935 14.5424 6.5794 14.5424 6.57945 14.5425L6.57858 14.5416L6.57028 14.5338C6.56234 14.5264 6.54986 14.515 6.5335 14.501C6.5005 14.4727 6.45337 14.435 6.39749 14.3978C6.27634 14.317 6.15468 14.2656 6.06086 14.2656H5.19328C4.71413 14.2656 4.32571 13.8772 4.32571 13.398V11.6629C4.32571 11.1837 4.71413 10.7953 5.19328 10.7953H5.48248C5.96162 10.7953 6.35005 11.1837 6.35005 11.6629ZM4.90409 11.6629C4.90409 11.5031 5.03357 11.3737 5.19328 11.3737H5.48248C5.64219 11.3737 5.77167 11.5031 5.77167 11.6629V13.6872H5.19328C5.03357 13.6872 4.90409 13.5577 4.90409 13.398V11.6629Z"/>
</svg>
