<svg xmlns="http://www.w3.org/2000/svg" width="32" height="32" viewBox="0 0 32 32" aria-label="FigmaLogo" alt="FigmaLogo">
  <path fill="#1ABCFE" d="M19 28.5a9.5 9.5 0 1 1 19 0 9.5 9.5 0 0 1-19 0z"></path><path fill="#0ACF83" d="M0 47.5A9.5 9.5 0 0 1 9.5 38H19v9.5a9.5 9.5 0 1 1-19 0z"></path><path fill="#FF7262" d="M19 0v19h9.5a9.5 9.5 0 1 0 0-19H19z"></path><path fill="#F24E1E" d="M0 9.5A9.5 9.5 0 0 0 9.5 19H19V0H9.5A9.5 9.5 0 0 0 0 9.5z"></path><path fill="#A259FF" d="M0 28.5A9.5 9.5 0 0 0 9.5 38H19V19H9.5A9.5 9.5 0 0 0 0 28.5z"></path>
</svg>