<svg width="16" height="16" viewBox="0 0 16 16" xmlns="http://www.w3.org/2000/svg">
  <path d="M3.736 1.529h8.723a1.92 1.92 0 0 1 1.918 1.918v8.665a1.92 1.92 0 0 1 -1.918 1.918H3.736a0.386 0.386 0 0 1 -0.384 -0.383v-1.663h-0.639a0.384 0.384 0 1 1 0 -0.767h0.64V8.164h-0.64a0.384 0.384 0 0 1 0 -0.767h0.64V4.343h-0.64a0.384 0.384 0 0 1 0 -0.767h0.64V1.913a0.386 0.386 0 0 1 0.383 -0.384m0.384 0.767V3.576h0.639a0.384 0.384 0 1 1 0 0.767h-0.64v3.054h0.64a0.384 0.384 0 0 1 0 0.767h-0.64v3.054h0.64a0.384 0.384 0 0 1 0 0.767h-0.64v1.279h8.339a1.151 1.151 0 0 0 1.151 -1.151V3.448a1.151 1.151 0 0 0 -1.15 -1.151z"/>
  <path d="M11.61 7.738a0.386 0.386 0 0 1 -0.383 0.384H7.134a0.384 0.384 0 0 1 0 -0.767h4.092a0.386 0.386 0 0 1 0.383 0.383m-0.383 1.662H7.134a0.384 0.384 0 0 0 0 0.767h4.092a0.384 0.384 0 1 0 0 -0.767"/>
  <path d="M11.611 5.707a0.386 0.386 0 0 1 -0.384 0.384H7.136a0.384 0.384 0 0 1 0 -0.767h4.091a0.386 0.386 0 0 1 0.384 0.383"/>
</svg>
