<svg width="16" height="16" viewBox="0 0 16 16" xmlns="http://www.w3.org/2000/svg">
  <path d="M14.0392 4.56853H11.7059V2.2352C11.7059 1.98038 11.6047 1.736 11.4245 1.55582C11.2443 1.37564 10.9999 1.27441 10.7451 1.27441H1.96078C1.70597 1.27441 1.46159 1.37564 1.28141 1.55582C1.10123 1.736 1 1.98038 1 2.2352V11.0195C1.00009 11.0972 1.02218 11.1734 1.06371 11.2391C1.10525 11.3048 1.16453 11.3574 1.23471 11.3908C1.28987 11.4176 1.35043 11.4315 1.41176 11.4313C1.5059 11.4313 1.59722 11.3991 1.67049 11.34L4.27422 9.2352H4.29412V11.5685C4.29412 11.8233 4.39534 12.0677 4.57552 12.2479C4.75571 12.4281 5.00009 12.5293 5.2549 12.5293H11.7258L14.3295 14.6341C14.4028 14.6932 14.4941 14.7254 14.5882 14.7254C14.6496 14.7256 14.7101 14.7117 14.7653 14.6849C14.8355 14.6515 14.8948 14.5989 14.9363 14.5332C14.9778 14.4675 14.9999 14.3914 15 14.3136V5.52932C15 5.2745 14.8988 5.03012 14.7186 4.84994C14.5384 4.66976 14.294 4.56853 14.0392 4.56853ZM4.12804 8.41167C4.0339 8.41162 3.94259 8.44384 3.86931 8.50294L1.82353 10.1569V2.2352C1.82353 2.1988 1.83799 2.16388 1.86373 2.13814C1.88947 2.1124 1.92438 2.09794 1.96078 2.09794H10.7451C10.7815 2.09794 10.8164 2.1124 10.8422 2.13814C10.8679 2.16388 10.8824 2.1988 10.8824 2.2352V8.27441C10.8824 8.31082 10.8679 8.34573 10.8422 8.37147C10.8164 8.39721 10.7815 8.41167 10.7451 8.41167H4.12804ZM14.1765 13.451L12.1307 11.7971C12.0574 11.738 11.9661 11.7057 11.872 11.7058H5.2549C5.2185 11.7058 5.18359 11.6913 5.15785 11.6656C5.13211 11.6398 5.11765 11.6049 5.11765 11.5685V9.2352H10.7451C10.9999 9.2352 11.2443 9.13397 11.4245 8.95379C11.6047 8.77361 11.7059 8.52923 11.7059 8.27441V5.39206H14.0392C14.0756 5.39206 14.1105 5.40652 14.1363 5.43226C14.162 5.458 14.1765 5.49291 14.1765 5.52932V13.451Z"/>
</svg>
