<!--
  - SPDX-License-Identifier: Apache-2.0
  -
  - The OpenSearch Contributors require contributions made to
  - this file be licensed under the Apache-2.0 license or a
  - compatible open source license.
  -
  - Modifications Copyright OpenSearch Contributors. See
  - GitHub history for details.
  -->
<!--
  - Copyright (C) 2004 Remix Icon
  -
  - Licensed under the Apache License, Version 2.0 (the "License");
  - you may not use this file except in compliance with the License.
  - You may obtain a copy of the License at
  -
  -         http://www.apache.org/licenses/LICENSE-2.0
  -
  - Unless required by applicable law or agreed to in writing, software
  - distributed under the License is distributed on an "AS IS" BASIS,
  - WITHOUT WARRANTIES OR CONDITIONS OF ANY KIND, either express or implied.
  - See the License for the specific language governing permissions and
  - limitations under the License.
  -->

<svg width="16" height="16" viewBox="0 0 16 16" xmlns="http://www.w3.org/2000/svg">
  <path d="M13.747 2.226H2.378a0.904 0.904 0 0 0 -0.904 0.904v9.302a0.904 0.904 0 0 0 0.904 0.904h11.368a0.904 0.904 0 0 0 0.904 -0.904V3.13a0.904 0.904 0 0 0 -0.904 -0.904m-11.368 0.775h11.368a0.129 0.129 0 0 1 0.129 0.13v2.712H2.249V3.13a0.129 0.129 0 0 1 0.129 -0.13m-0.129 9.431V6.616h3.876v5.943h-3.746a0.129 0.129 0 0 1 -0.13 -0.129m11.497 0.129H6.899V6.617h6.976v5.814a0.129 0.129 0 0 1 -0.129 0.129"/>
</svg>
