<svg width="16" height="16" viewBox="0 0 16 16" xmlns="http://www.w3.org/2000/svg">
  <path d="M7.86275 8.00011C7.86281 8.0619 7.84896 8.12292 7.82223 8.17864C7.7955 8.23436 7.75657 8.28334 7.70833 8.32197L4.96324 10.518C4.87787 10.5863 4.76889 10.6179 4.66027 10.6058C4.55164 10.5937 4.45227 10.5389 4.38402 10.4535C4.31577 10.3682 4.28422 10.2592 4.29632 10.1506C4.30841 10.0419 4.36317 9.94258 4.44853 9.87432L6.79216 8.00011L4.44853 6.12589C4.40626 6.09209 4.37107 6.0503 4.34495 6.0029C4.31883 5.95551 4.30231 5.90343 4.29632 5.84964C4.29032 5.79586 4.29499 5.74142 4.31004 5.68944C4.32508 5.63745 4.35022 5.58894 4.38402 5.54667C4.41782 5.50441 4.45961 5.46921 4.507 5.44309C4.5544 5.41698 4.60648 5.40045 4.66027 5.39446C4.71405 5.38847 4.76849 5.39313 4.82047 5.40818C4.87246 5.42323 4.92097 5.44837 4.96324 5.48216L7.70833 7.67824C7.75657 7.71687 7.7955 7.76585 7.82223 7.82157C7.84896 7.87729 7.86281 7.93831 7.86275 8.00011ZM11.2941 9.78442H8.54902C8.43981 9.78442 8.33508 9.8278 8.25786 9.90502C8.18064 9.98224 8.13726 10.087 8.13726 10.1962C8.13726 10.3054 8.18064 10.4101 8.25786 10.4873C8.33508 10.5646 8.43981 10.6079 8.54902 10.6079H11.2941C11.4033 10.6079 11.5081 10.5646 11.5853 10.4873C11.6625 10.4101 11.7059 10.3054 11.7059 10.1962C11.7059 10.087 11.6625 9.98224 11.5853 9.90502C11.5081 9.8278 11.4033 9.78442 11.2941 9.78442ZM15 3.05893V12.9413C15 13.1961 14.8988 13.4405 14.7186 13.6207C14.5384 13.8008 14.294 13.9021 14.0392 13.9021H1.96078C1.70597 13.9021 1.46159 13.8008 1.28141 13.6207C1.10123 13.4405 1 13.1961 1 12.9413V3.05893C1 2.80411 1.10123 2.55973 1.28141 2.37955C1.46159 2.19937 1.70597 2.09814 1.96078 2.09814H14.0392C14.294 2.09814 14.5384 2.19937 14.7186 2.37955C14.8988 2.55973 15 2.80411 15 3.05893ZM14.1765 3.05893C14.1765 3.02253 14.162 2.98762 14.1363 2.96187C14.1105 2.93613 14.0756 2.92167 14.0392 2.92167H1.96078C1.92438 2.92167 1.88947 2.93613 1.86373 2.96187C1.83799 2.98762 1.82353 3.02253 1.82353 3.05893V12.9413C1.82353 12.9777 1.83799 13.0126 1.86373 13.0383C1.88947 13.0641 1.92438 13.0785 1.96078 13.0785H14.0392C14.0756 13.0785 14.1105 13.0641 14.1363 13.0383C14.162 13.0126 14.1765 12.9777 14.1765 12.9413V3.05893Z"/>
</svg>
