<svg width="16" height="16" viewBox="0 0 16 16" xmlns="http://www.w3.org/2000/svg">
  <path d="m14.351 8.931 -2.489 -5.669a0.376 0.376 0 0 0 -0.075 -0.109 1.798 1.798 0 0 0 -2.541 0 0.358 0.358 0 0 0 -0.104 0.254v1.616H6.984V3.407a0.358 0.358 0 0 0 -0.105 -0.254 1.798 1.798 0 0 0 -2.541 0 0.376 0.376 0 0 0 -0.074 0.109L1.774 8.932A2.755 2.755 0 1 0 6.984 10.174V5.742h2.155v4.433a2.755 2.755 0 1 0 5.211 -1.244M4.23 12.211a2.036 2.036 0 1 1 0 -4.072 2.036 2.036 0 0 1 0 4.072m0 -4.792c-0.383 0 -0.761 0.08 -1.111 0.235l1.772 -4.037a1.078 1.078 0 0 1 1.374 -0.049v4.748a2.748 2.748 0 0 0 -2.036 -0.898m5.63 -3.849a1.078 1.078 0 0 1 1.374 0.049l1.773 4.035a2.748 2.748 0 0 0 -3.147 0.664zm2.036 8.64a2.036 2.036 0 1 1 0 -4.071 2.036 2.036 0 0 1 0 4.072"/>
</svg>
