<!--
  - SPDX-License-Identifier: Apache-2.0
  -
  - The OpenSearch Contributors require contributions made to
  - this file be licensed under the Apache-2.0 license or a
  - compatible open source license.
  -
  - Modifications Copyright OpenSearch Contributors. See
  - GitHub history for details.
  -->
<!--
  - Copyright (C) 2004 Remix Icon
  -
  - Licensed under the Apache License, Version 2.0 (the "License");
  - you may not use this file except in compliance with the License.
  - You may obtain a copy of the License at
  -
  -         http://www.apache.org/licenses/LICENSE-2.0
  -
  - Unless required by applicable law or agreed to in writing, software
  - distributed under the License is distributed on an "AS IS" BASIS,
  - WITHOUT WARRANTIES OR CONDITIONS OF ANY KIND, either express or implied.
  - See the License for the specific language governing permissions and
  - limitations under the License.
  -->

<svg width="16" height="16" viewBox="0 0 16 16" xmlns="http://www.w3.org/2000/svg">
  <path d="M14.1543 1C14.6213 1.00019 14.9998 1.37866 15 1.8457V14.1543C14.9998 14.6213 14.6213 14.9998 14.1543 15H1.8457C1.37866 14.9998 1.00019 14.6213 1 14.1543V1.8457C1.00019 1.37866 1.37866 1.00019 1.8457 1H14.1543ZM1.8457 14.1543H8.87988V1.8457H1.8457V14.1543ZM9.73438 14.1543H14.1543V1.8457H9.73438V14.1543ZM6.83594 8.4502C7.07218 8.4502 7.26366 8.64169 7.26367 8.87793C7.26367 9.11418 7.07219 9.30566 6.83594 9.30566H4.00488C3.76864 9.30566 3.57715 9.11418 3.57715 8.87793C3.57716 8.64169 3.76864 8.4502 4.00488 8.4502H6.83594ZM6.83594 5.83105C7.07219 5.83105 7.26367 6.02254 7.26367 6.25879C7.26352 6.49491 7.07209 6.68652 6.83594 6.68652H4.00488C3.76873 6.68652 3.5773 6.4949 3.57715 6.25879C3.57715 6.02254 3.76864 5.83106 4.00488 5.83105H6.83594ZM6.83594 3.21094C7.07208 3.21094 7.2635 3.40257 7.26367 3.63867C7.26367 3.87492 7.07219 4.06641 6.83594 4.06641H4.00488C3.76864 4.0664 3.57715 3.87492 3.57715 3.63867C3.57732 3.40257 3.76874 3.21094 4.00488 3.21094H6.83594Z"/>
</svg>
