<!--
  - SPDX-License-Identifier: Apache-2.0
  -
  - The OpenSearch Contributors require contributions made to
  - this file be licensed under the Apache-2.0 license or a
  - compatible open source license.
  -
  - Modifications Copyright OpenSearch Contributors. See
  - GitHub history for details.
  -->
<!--
  - Copyright (C) 2004 Remix Icon
  -
  - Licensed under the Apache License, Version 2.0 (the "License");
  - you may not use this file except in compliance with the License.
  - You may obtain a copy of the License at
  -
  -         http://www.apache.org/licenses/LICENSE-2.0
  -
  - Unless required by applicable law or agreed to in writing, software
  - distributed under the License is distributed on an "AS IS" BASIS,
  - WITHOUT WARRANTIES OR CONDITIONS OF ANY KIND, either express or implied.
  - See the License for the specific language governing permissions and
  - limitations under the License.
  -->

<svg width="16" height="16" viewBox="0 0 16 16" xmlns="http://www.w3.org/2000/svg">
  <path clip-rule="evenodd" d="M8.274 2.44c3.694 0 6.588 1.663 6.588 3.784v3.365c0 0.687 -0.306 1.325 -0.841 1.876v0.002l-0.025 0.023q-0.085 0.085 -0.178 0.169l-0.026 0.024a4.706 4.706 0 0 1 -0.489 0.376l-0.033 0.021q-0.396 0.264 -0.872 0.48 -0.028 0.013 -0.058 0.025a7.529 7.529 0 0 1 -0.291 0.122l-0.034 0.014a8.471 8.471 0 0 1 -1.091 0.343l-0.037 0.009q-0.181 0.043 -0.367 0.081l-0.101 0.02q-0.152 0.028 -0.306 0.054l-0.082 0.013q-0.167 0.025 -0.336 0.046l-0.075 0.009q-0.19 0.023 -0.384 0.038l-0.139 0.009a11.294 11.294 0 0 1 -0.395 0.021q-0.212 0.009 -0.427 0.009a12.235 12.235 0 0 1 -0.824 -0.03l-0.138 -0.009a11.294 11.294 0 0 1 -0.385 -0.038l-0.073 -0.009a11.294 11.294 0 0 1 -0.339 -0.046l-0.081 -0.012q-0.155 -0.025 -0.309 -0.056l-0.097 -0.018a10.353 10.353 0 0 1 -0.369 -0.082l-0.029 -0.008a9.412 9.412 0 0 1 -0.314 -0.082q-0.055 -0.015 -0.107 -0.031a8.188 8.188 0 0 1 -1.366 -0.541 5.647 5.647 0 0 1 -0.567 -0.331l-0.031 -0.021a4.706 4.706 0 0 1 -0.488 -0.376l-0.026 -0.024a4.706 4.706 0 0 1 -0.174 -0.165q-0.015 -0.013 -0.03 -0.028v-0.002c-0.536 -0.55 -0.84 -1.188 -0.84 -1.875V6.224c0 -2.121 2.894 -3.784 6.588 -3.784m5.747 5.662c-1.122 1.148 -3.25 1.907 -5.747 1.907s-4.626 -0.76 -5.748 -1.907v1.487c0 1.595 2.632 2.943 5.748 2.943s5.746 -1.348 5.747 -2.943zM8.273 3.28c-3.115 0 -5.748 1.349 -5.748 2.945S5.159 9.167 8.274 9.167s5.746 -1.348 5.747 -2.943c0 -1.596 -2.632 -2.945 -5.747 -2.945"/>
</svg>
