<svg width="16" height="16" viewBox="0 0 16 16" xmlns="http://www.w3.org/2000/svg">
  <path clip-rule="evenodd" d="M8.15954 2.805C9.78453 1.40097 12.2438 1.47083 13.7875 3.01438C15.3267 4.55361 15.4005 7.00341 14.0087 8.62965L8.78214 13.8744C8.37187 14.2844 7.71903 14.3052 7.28489 13.936L7.21141 13.868L1.99119 8.62965C0.599473 7.00349 0.67342 4.55361 2.21242 3.01438C3.75606 1.47074 6.21574 1.40077 7.84192 2.805L8.00073 2.94248L8.15954 2.805ZM7.18455 3.38099C5.93722 2.3825 4.12979 2.4277 2.93379 3.51768L2.92984 3.52163L2.82633 3.62039L2.82238 3.62434C1.57956 4.86739 1.54388 6.86083 2.71572 8.1469L2.71967 8.15085L2.81843 8.25435L7.99994 13.4359L11.7466 9.68839L11.9181 9.51615L9.19221 6.79029L9.01996 6.96174L8.30492 7.67679C7.60976 8.37156 6.48266 8.37176 5.78765 7.67679C5.09282 6.98174 5.09289 5.85459 5.78765 5.15952L7.3963 3.55007L7.18455 3.38099ZM13.1775 3.62434C11.9731 2.42012 10.0647 2.34929 8.7774 3.4118L8.65493 3.51768L8.65098 3.52163L8.54748 3.62039L6.3984 5.76948C6.06598 6.10211 6.04218 6.62701 6.32729 6.98703L6.33124 6.99256L6.33598 6.9973L6.38812 7.05656L6.3984 7.06683C6.73095 7.39908 7.25514 7.42274 7.61516 7.13794L7.62069 7.1332L7.62543 7.12846L7.68469 7.07631L7.69022 7.07157L8.88644 5.87456C9.05491 5.70607 9.32869 5.7061 9.49719 5.87456L12.5288 8.90619L13.1775 8.2583C14.457 6.9787 14.4571 4.90395 13.1775 3.62434Z"/>
</svg>
