<svg width="16" height="16" viewBox="0 0 16 16" xmlns="http://www.w3.org/2000/svg">
  <path clip-rule="evenodd" d="M4.32884 9.43262C4.55048 9.43285 4.72993 9.61224 4.72993 9.83301V14.501C4.72946 14.7214 4.55019 14.9002 4.32884 14.9004H1.53098C1.30943 14.9004 1.12937 14.7215 1.12891 14.501V9.83301C1.12891 9.61209 1.30914 9.43262 1.53098 9.43262H4.32884ZM1.93306 14.1006H3.92676V10.2334H1.93306V14.1006Z"/>
  <path clip-rule="evenodd" d="M9.42832 1.09961C9.64997 1.09984 9.82942 1.27923 9.82942 1.5V14.5C9.82939 14.7207 9.64995 14.9002 9.42832 14.9004H6.63047C6.40864 14.9004 6.22842 14.7209 6.22839 14.5V1.5C6.22839 1.27909 6.40863 1.09961 6.63047 1.09961H9.42832ZM7.03254 14.0996H9.02625V1.90039H7.03254V14.0996Z"/>
  <path clip-rule="evenodd" d="M14.5278 4.66309C14.7495 4.66332 14.9289 4.84271 14.9289 5.06348V14.5C14.9286 14.7205 14.7493 14.9002 14.5278 14.9004H11.73C11.5083 14.9004 11.3281 14.7207 11.3279 14.5V5.06348C11.3279 4.84256 11.5081 4.66309 11.73 4.66309H14.5278ZM12.132 14.1006H14.1257V5.46387H12.132V14.1006Z"/>
</svg>
