<svg width="16" height="16" viewBox="0 0 16 16" xmlns="http://www.w3.org/2000/svg">
  <path d="M9.49859 15.0909C9.49859 15.1994 9.45549 15.3035 9.37878 15.3802C9.30206 15.4569 9.19801 15.5 9.08952 15.5H6.90777C6.79928 15.5 6.69523 15.4569 6.61851 15.3802C6.54179 15.3035 6.49869 15.1994 6.49869 15.0909C6.49869 14.9824 6.54179 14.8784 6.61851 14.8017C6.69523 14.7249 6.79928 14.6818 6.90777 14.6818H9.08952C9.19801 14.6818 9.30206 14.7249 9.37878 14.8017C9.45549 14.8784 9.49859 14.9824 9.49859 15.0909ZM7.99864 7.31845C8.13349 7.31845 8.26531 7.27847 8.37743 7.20355C8.48955 7.12863 8.57694 7.02215 8.62854 6.89757C8.68014 6.77299 8.69364 6.6359 8.66734 6.50364C8.64103 6.37139 8.5761 6.24991 8.48075 6.15455C8.38539 6.0592 8.26391 5.99427 8.13165 5.96796C7.9994 5.94165 7.86231 5.95516 7.73773 6.00676C7.61315 6.05836 7.50667 6.14575 7.43175 6.25787C7.35683 6.36999 7.31685 6.50181 7.31685 6.63666C7.31685 6.81748 7.38868 6.9909 7.51654 7.11876C7.6444 7.24662 7.81782 7.31845 7.99864 7.31845ZM14.385 10.4138L13.5423 14.2046C13.5075 14.3622 13.4333 14.5085 13.3267 14.6296C13.22 14.7508 13.0844 14.8429 12.9324 14.8974C12.7805 14.9519 12.6172 14.9669 12.4578 14.9412C12.2985 14.9154 12.1483 14.8496 12.0212 14.75L10.1265 13.3183H5.8728L3.97605 14.75C3.84901 14.8501 3.69863 14.9163 3.53901 14.9423C3.37939 14.9684 3.21577 14.9534 3.06351 14.8989C2.91124 14.8444 2.77533 14.7521 2.66853 14.6306C2.56173 14.5092 2.48754 14.3626 2.45292 14.2046L1.61226 10.4138C1.5809 10.2713 1.58246 10.1236 1.61684 9.98178C1.65123 9.84 1.71752 9.70793 1.81067 9.59565L3.78787 7.22573C3.84904 6.36641 4.04411 5.52193 4.36604 4.72286C5.23328 2.54929 6.78777 1.1857 7.41571 0.700263C7.58308 0.570452 7.78888 0.5 8.00069 0.5C8.2125 0.5 8.4183 0.570452 8.58567 0.700263C9.2136 1.1857 10.7674 2.54929 11.6353 4.72286C11.9573 5.52193 12.1523 6.36641 12.2135 7.22573L14.1907 9.59565C14.2832 9.70829 14.3487 9.84051 14.3824 9.98228C14.416 10.1241 14.4169 10.2716 14.385 10.4138ZM5.97098 12.5001H10.0263C11.5215 9.87791 11.8072 7.36413 10.8738 5.02626C10.059 2.98087 8.53181 1.69432 8.08319 1.34456C8.05911 1.32554 8.02933 1.31519 7.99864 1.31519C7.96796 1.31519 7.93817 1.32554 7.9141 1.34456C7.46548 1.69159 5.93689 2.98087 5.12351 5.02626C4.19013 7.36413 4.4758 9.87791 5.97098 12.5001ZM5.20328 12.8001C4.38513 11.3349 3.91469 9.89564 3.79742 8.49182L2.43928 10.1193C2.42593 10.1352 2.41641 10.154 2.41144 10.1742C2.40648 10.1944 2.40621 10.2155 2.41065 10.2359L3.25403 14.0294C3.25904 14.052 3.26972 14.0729 3.28507 14.0902C3.30042 14.1076 3.31992 14.1207 3.34174 14.1284C3.36357 14.1361 3.387 14.1381 3.40982 14.1343C3.43264 14.1304 3.45411 14.1208 3.4722 14.1064L3.48107 14.0989L5.20328 12.8001ZM13.5601 10.1193L12.204 8.49182C12.0867 9.89564 11.6176 11.3349 10.7981 12.8001L12.5183 14.0955L12.5271 14.103C12.5452 14.1174 12.5667 14.127 12.5895 14.1309C12.6123 14.1347 12.6358 14.1327 12.6576 14.125C12.6794 14.1173 12.6989 14.1042 12.7143 14.0868C12.7296 14.0695 12.7403 14.0486 12.7453 14.026L13.5894 10.2359C13.5934 10.2153 13.5927 10.1941 13.5873 10.1739C13.5819 10.1537 13.5718 10.135 13.558 10.1193H13.5601Z"/>
</svg>
