<svg width="16" height="16" viewBox="0 0 16 16" xmlns="http://www.w3.org/2000/svg">
  <path d="M13.57 6.001H2.356A0.982 0.982 0 0 0 1.375 6.984v6.728a0.982 0.982 0 0 0 0.981 0.981h11.214a0.982 0.982 0 0 0 0.982 -0.981v-6.729a0.982 0.982 0 0 0 -0.982 -0.981m0.141 7.71a0.141 0.141 0 0 1 -0.141 0.14H2.356a0.141 0.141 0 0 1 -0.139 -0.141V6.984a0.141 0.141 0 0 1 0.139 -0.141h11.214a0.141 0.141 0 0 1 0.141 0.141zM2.495 4.179a0.421 0.421 0 0 1 0.421 -0.421h10.093a0.421 0.421 0 1 1 0 0.841H2.917a0.421 0.421 0 0 1 -0.421 -0.421m1.122 -2.243a0.421 0.421 0 0 1 0.421 -0.421h7.849a0.421 0.421 0 0 1 0 0.841h-7.849a0.421 0.421 0 0 1 -0.421 -0.421"/>
</svg>
