<!--
  - SPDX-License-Identifier: Apache-2.0
  -
  - The OpenSearch Contributors require contributions made to
  - this file be licensed under the Apache-2.0 license or a
  - compatible open source license.
  -
  - Modifications Copyright OpenSearch Contributors. See
  - GitHub history for details.
  -->
<!--
  - Copyright (C) 2004 Remix Icon
  -
  - Licensed under the Apache License, Version 2.0 (the "License");
  - you may not use this file except in compliance with the License.
  - You may obtain a copy of the License at
  -
  -         http://www.apache.org/licenses/LICENSE-2.0
  -
  - Unless required by applicable law or agreed to in writing, software
  - distributed under the License is distributed on an "AS IS" BASIS,
  - WITHOUT WARRANTIES OR CONDITIONS OF ANY KIND, either express or implied.
  - See the License for the specific language governing permissions and
  - limitations under the License.
  -->

<svg width="16" height="16" viewBox="0 0 16 16" xmlns="http://www.w3.org/2000/svg">
  <path clip-rule="evenodd" d="M4.98838 7.99988C4.98942 7.20161 5.30674 6.43622 5.87119 5.87175C6.43565 5.30729 7.20105 4.98999 7.99931 4.98894C8.59473 4.98894 9.17686 5.16524 9.67197 5.49597C10.1671 5.82684 10.5534 6.29732 10.7813 6.84753C11.0092 7.39774 11.0686 8.00328 10.9524 8.58738C10.8362 9.17144 10.5493 9.7077 10.1282 10.1288C9.70712 10.5499 9.17089 10.8368 8.58681 10.953C8.00271 11.0692 7.39718 11.0098 6.84697 10.7819C6.29677 10.554 5.82627 10.1677 5.49541 9.67253C5.16467 9.17742 4.98838 8.5953 4.98838 7.99988ZM5.94306 7.14831C5.77467 7.55495 5.73064 8.00258 5.8165 8.43425C5.9024 8.8659 6.11467 9.2621 6.42588 9.57331C6.73708 9.88452 7.1333 10.0968 7.56494 10.1827C7.9966 10.2686 8.44425 10.2245 8.85088 10.0561C9.25752 9.88769 9.60555 9.60256 9.85009 9.2366C10.0946 8.8706 10.2251 8.44006 10.2251 7.99988C10.2251 7.40961 9.99013 6.84382 9.57275 6.42644C9.15537 6.00907 8.58957 5.77409 7.99931 5.77409C7.55915 5.77411 7.12858 5.90455 6.76259 6.14909C6.39664 6.39364 6.1115 6.74167 5.94306 7.14831Z"/>
  <path clip-rule="evenodd" d="M1.20088 10.1905C1.20593 10.1357 1.22278 10.0823 1.25009 10.0343L2.38994 8.03503V7.96941L1.25166 5.96394C1.22452 5.91623 1.20763 5.86365 1.20244 5.80925C1.19728 5.75474 1.20344 5.69943 1.22119 5.64753C1.51641 4.78366 1.97594 3.98244 2.57509 3.2866C2.61258 3.24356 2.65945 3.20876 2.71181 3.18503C2.76429 3.1613 2.82201 3.14909 2.87978 3.1491L5.1665 3.14128L5.21416 3.11316L6.37275 1.12097C6.40078 1.07231 6.43926 1.02971 6.48525 0.996752C6.53111 0.963943 6.58361 0.940943 6.63916 0.929564C7.53677 0.755661 8.46064 0.757071 9.35791 0.93269C9.41421 0.943641 9.46759 0.966149 9.51416 0.999096C9.56071 1.03205 9.59984 1.07434 9.62822 1.12331L10.7806 3.11472C10.7966 3.12323 10.8129 3.1329 10.8282 3.14206L13.1173 3.15222C13.175 3.15247 13.2321 3.165 13.2845 3.18894C13.3368 3.21289 13.3831 3.24802 13.4204 3.29128C14.0206 3.98537 14.4817 4.78479 14.7782 5.64753C14.7925 5.68813 14.7995 5.73115 14.7993 5.77409C14.799 5.84084 14.7814 5.9063 14.7485 5.96472L13.6087 7.9655V8.03113L14.7478 10.0343C14.775 10.082 14.791 10.1352 14.7962 10.1897C14.8014 10.2443 14.7952 10.2995 14.7774 10.3514C14.4822 11.2154 14.0228 12.0165 13.4235 12.7124C13.3857 12.7561 13.3383 12.7915 13.2853 12.8155C13.2322 12.8394 13.1741 12.8518 13.1157 12.8514L10.829 12.8593L10.7813 12.8866L9.62588 14.878C9.59785 14.9266 9.5593 14.9685 9.51338 15.0014C9.46746 15.0343 9.41511 15.0572 9.35947 15.0686C8.46199 15.2434 7.5382 15.2434 6.64072 15.0686C6.58447 15.0577 6.53103 15.0351 6.48447 15.0022C6.43803 14.9694 6.39881 14.9276 6.37041 14.8788L5.21806 12.8882C5.20212 12.8797 5.18569 12.8707 5.17041 12.8616L2.88134 12.8514C2.82361 12.8512 2.76649 12.8387 2.71416 12.8147C2.6618 12.7908 2.61557 12.7556 2.57822 12.7124C1.97768 12.0174 1.51653 11.2168 1.22041 10.353C1.20233 10.3009 1.19582 10.2453 1.20088 10.1905ZM3.14072 7.67956C3.17561 7.7409 3.19322 7.8109 3.1915 7.88113V8.12566C3.19386 8.19589 3.17614 8.26538 3.14072 8.32644L2.03681 10.2639C2.28081 10.9143 2.63039 11.5216 3.07197 12.0624L5.28603 12.0725C5.36053 12.0727 5.43377 12.094 5.49697 12.1327C5.56556 12.1752 5.63976 12.216 5.70634 12.2546C5.77048 12.2905 5.82352 12.3428 5.85947 12.4061L6.97353 14.3296C7.65287 14.4415 8.34654 14.4415 9.02588 14.3296L10.1438 12.403C10.1802 12.3406 10.2338 12.2894 10.2978 12.2546C10.3682 12.216 10.4398 12.1745 10.5063 12.1327C10.5695 12.094 10.6428 12.0728 10.7173 12.0725L12.929 12.0647C13.3703 11.5223 13.7186 10.9129 13.961 10.2608L12.8571 8.31863C12.8223 8.25736 12.8046 8.18797 12.8063 8.11784V7.86394C12.8065 7.79675 12.8244 7.73032 12.8579 7.67175L13.9618 5.73503C13.7181 5.08366 13.3685 4.47505 12.9267 3.93347L10.7126 3.92331C10.6383 3.92309 10.5655 3.9025 10.5024 3.86394C10.4339 3.82146 10.3597 3.78063 10.2931 3.74206C10.2291 3.70687 10.1756 3.65531 10.1392 3.59284L9.02509 1.66628V1.66785C8.3456 1.55655 7.65202 1.55679 6.97275 1.66941L5.854 3.59753C5.81771 3.65978 5.76476 3.71118 5.70088 3.74597C5.63021 3.78459 5.55817 3.82595 5.4915 3.86785C5.42831 3.90656 5.35505 3.92702 5.28056 3.92722L3.06963 3.93503C2.62827 4.4775 2.27933 5.08673 2.03681 5.73894L3.14072 7.67956Z"/>
</svg>
