<!--
  - SPDX-License-Identifier: Apache-2.0
  -
  - The OpenSearch Contributors require contributions made to
  - this file be licensed under the Apache-2.0 license or a
  - compatible open source license.
  -
  - Modifications Copyright OpenSearch Contributors. See
  - GitHub history for details.
  -->
<!--
  - Copyright (C) 2004 Remix Icon
  -
  - Licensed under the Apache License, Version 2.0 (the "License");
  - you may not use this file except in compliance with the License.
  - You may obtain a copy of the License at
  -
  -         http://www.apache.org/licenses/LICENSE-2.0
  -
  - Unless required by applicable law or agreed to in writing, software
  - distributed under the License is distributed on an "AS IS" BASIS,
  - WITHOUT WARRANTIES OR CONDITIONS OF ANY KIND, either express or implied.
  - See the License for the specific language governing permissions and
  - limitations under the License.
  -->

<svg width="16" height="16" viewBox="0 0 16 16" xmlns="http://www.w3.org/2000/svg">
  <path d="M11.169 6.985h2.984a0.87 0.87 0 0 0 0.87 -0.871v-2.984a0.87 0.87 0 0 0 -0.871 -0.87h-2.984a0.87 0.87 0 0 0 -0.87 0.87v1.119H9.179a1.368 1.368 0 0 0 -1.367 1.368v2.113H5.575v-0.621A0.87 0.87 0 0 0 4.706 6.239H2.715a0.87 0.87 0 0 0 -0.87 0.871v1.989a0.87 0.87 0 0 0 0.87 0.871H4.706a0.87 0.87 0 0 0 0.87 -0.871v-0.621h2.238v2.113a1.368 1.368 0 0 0 1.367 1.368h1.12v1.118a0.87 0.87 0 0 0 0.87 0.871h2.984a0.87 0.87 0 0 0 0.87 -0.871v-2.984a0.871 0.871 0 0 0 -0.871 -0.87h-2.984a0.87 0.87 0 0 0 -0.87 0.871v1.118H9.179a0.621 0.621 0 0 1 -0.621 -0.621V5.618a0.621 0.621 0 0 1 0.621 -0.621h1.12v1.118a0.87 0.87 0 0 0 0.87 0.871M4.828 9.098a0.122 0.122 0 0 1 -0.124 0.124H2.715a0.122 0.122 0 0 1 -0.124 -0.124V7.11a0.122 0.122 0 0 1 0.124 -0.124H4.706a0.122 0.122 0 0 1 0.124 0.124zm6.216 0.995a0.122 0.122 0 0 1 0.124 -0.125h2.984a0.122 0.122 0 0 1 0.123 0.125v2.984a0.122 0.122 0 0 1 -0.124 0.123h-2.984a0.122 0.122 0 0 1 -0.123 -0.124zm0 -6.962a0.122 0.122 0 0 1 0.124 -0.124h2.984a0.122 0.122 0 0 1 0.123 0.124v2.984a0.122 0.122 0 0 1 -0.124 0.124h-2.984a0.122 0.122 0 0 1 -0.123 -0.124z"/>
</svg>
