<!--
  - SPDX-License-Identifier: Apache-2.0
  -
  - The OpenSearch Contributors require contributions made to
  - this file be licensed under the Apache-2.0 license or a
  - compatible open source license.
  -
  - Modifications Copyright OpenSearch Contributors. See
  - GitHub history for details.
  -->
<!--
  - Copyright (C) 2004 Remix Icon
  -
  - Licensed under the Apache License, Version 2.0 (the "License");
  - you may not use this file except in compliance with the License.
  - You may obtain a copy of the License at
  -
  -         http://www.apache.org/licenses/LICENSE-2.0
  -
  - Unless required by applicable law or agreed to in writing, software
  - distributed under the License is distributed on an "AS IS" BASIS,
  - WITHOUT WARRANTIES OR CONDITIONS OF ANY KIND, either express or implied.
  - See the License for the specific language governing permissions and
  - limitations under the License.
  -->

<svg width="16" height="16" viewBox="0 0 16 16" xmlns="http://www.w3.org/2000/svg">
  <path d="M6.04651 1H2.13953C1.83731 1 1.54747 1.12006 1.33376 1.33376C1.12006 1.54747 1 1.83731 1 2.13953V7.79651C1 7.94616 1.02947 8.09434 1.08674 8.23259C1.14401 8.37085 1.22795 8.49647 1.33376 8.60229C1.43958 8.7081 1.5652 8.79204 1.70345 8.84931C1.84171 8.90657 1.98989 8.93605 2.13953 8.93605H6.04651C6.19616 8.93605 6.34434 8.90657 6.48259 8.84931C6.62085 8.79204 6.74647 8.7081 6.85228 8.60229C6.9581 8.49647 7.04204 8.37085 7.0993 8.23259C7.15657 8.09434 7.18605 7.94616 7.18605 7.79651V2.13953C7.18605 1.98989 7.15657 1.84171 7.0993 1.70345C7.04204 1.5652 6.9581 1.43958 6.85228 1.33376C6.74647 1.22795 6.62085 1.14401 6.48259 1.08674C6.34434 1.02947 6.19616 1 6.04651 1ZM6.2093 7.79651C6.2093 7.83969 6.19215 7.88109 6.16162 7.91162C6.13109 7.94215 6.08969 7.9593 6.04651 7.9593H2.13953C2.09636 7.9593 2.05495 7.94215 2.02442 7.91162C1.9939 7.88109 1.97674 7.83969 1.97674 7.79651V2.13953C1.97674 2.09636 1.9939 2.05495 2.02442 2.02442C2.05495 1.9939 2.09636 1.97674 2.13953 1.97674H6.04651C6.08969 1.97674 6.13109 1.9939 6.16162 2.02442C6.19215 2.05495 6.2093 2.09636 6.2093 2.13953V7.79651ZM6.04651 10.564H2.13953C1.83731 10.564 1.54747 10.684 1.33376 10.8977C1.12006 11.1114 1 11.4013 1 11.7035V13.8605C1 14.1627 1.12006 14.4525 1.33376 14.6662C1.54747 14.8799 1.83731 15 2.13953 15H6.04651C6.19616 15 6.34434 14.9705 6.48259 14.9133C6.62085 14.856 6.74647 14.7721 6.85228 14.6662C6.9581 14.5604 7.04204 14.4348 7.0993 14.2965C7.15657 14.1583 7.18605 14.0101 7.18605 13.8605V11.7035C7.18605 11.5538 7.15657 11.4057 7.0993 11.2674C7.04204 11.1292 6.9581 11.0035 6.85228 10.8977C6.74647 10.7919 6.62085 10.708 6.48259 10.6507C6.34434 10.5934 6.19616 10.564 6.04651 10.564ZM6.2093 13.8605C6.2093 13.9036 6.19215 13.945 6.16162 13.9756C6.13109 14.0061 6.08969 14.0233 6.04651 14.0233H2.13953C2.09636 14.0233 2.05495 14.0061 2.02442 13.9756C1.9939 13.945 1.97674 13.9036 1.97674 13.8605V11.7035C1.97674 11.6603 1.9939 11.6189 2.02442 11.5884C2.05495 11.5578 2.09636 11.5407 2.13953 11.5407H6.04651C6.08969 11.5407 6.13109 11.5578 6.16162 11.5884C6.19215 11.6189 6.2093 11.6603 6.2093 11.7035V13.8605ZM13.8605 1H9.95349C9.65127 1 9.36142 1.12006 9.14772 1.33376C8.93401 1.54747 8.81395 1.83731 8.81395 2.13953V4.29651C8.81395 4.44616 8.84343 4.59434 8.9007 4.73259C8.95796 4.87085 9.0419 4.99647 9.14772 5.10228C9.25353 5.2081 9.37915 5.29204 9.51741 5.3493C9.65566 5.40657 9.80384 5.43605 9.95349 5.43605H13.8605C14.0101 5.43605 14.1583 5.40657 14.2965 5.3493C14.4348 5.29204 14.5604 5.2081 14.6662 5.10228C14.7721 4.99647 14.856 4.87085 14.9133 4.73259C14.9705 4.59434 15 4.44616 15 4.29651V2.13953C15 1.83731 14.8799 1.54747 14.6662 1.33376C14.4525 1.12006 14.1627 1 13.8605 1ZM14.0233 4.29651C14.0233 4.33969 14.0061 4.38109 13.9756 4.41162C13.945 4.44215 13.9036 4.4593 13.8605 4.4593H9.95349C9.91031 4.4593 9.86891 4.44215 9.83838 4.41162C9.80785 4.38109 9.7907 4.33969 9.7907 4.29651V2.13953C9.7907 2.09636 9.80785 2.05495 9.83838 2.02442C9.86891 1.9939 9.91031 1.97674 9.95349 1.97674H13.8605C13.9036 1.97674 13.945 1.9939 13.9756 2.02442C14.0061 2.05495 14.0233 2.09636 14.0233 2.13953V4.29651Z"/>
  <path d="M13.7737 7.06395H9.86675C9.56452 7.06395 9.27468 7.18401 9.06097 7.39772C8.84727 7.61142 8.72721 7.90127 8.72721 8.20349V13.8605C8.72721 14.0101 8.75669 14.1583 8.81395 14.2965C8.87122 14.4348 8.95516 14.5604 9.06097 14.6662C9.16679 14.7721 9.29241 14.856 9.43067 14.9133C9.56892 14.9705 9.7171 15 9.86675 15H13.7737C13.9234 15 14.0715 14.9705 14.2098 14.9133C14.3481 14.856 14.4737 14.7721 14.5795 14.6662C14.6853 14.5604 14.7692 14.4348 14.8265 14.2965C14.8838 14.1583 14.9133 14.0101 14.9133 13.8605V8.20349C14.9133 8.05384 14.8838 7.90566 14.8265 7.76741C14.7692 7.62915 14.6853 7.50353 14.5795 7.39772C14.4737 7.2919 14.3481 7.20796 14.2098 7.1507C14.0715 7.09343 13.9234 7.06395 13.7737 7.06395ZM13.9365 13.8605C13.9365 13.9036 13.9194 13.945 13.8888 13.9756C13.8583 14.0061 13.8169 14.0233 13.7737 14.0233H9.86675C9.82357 14.0233 9.78216 14.0061 9.75164 13.9756C9.72111 13.945 9.70395 13.9036 9.70395 13.8605V8.20349C9.70395 8.16031 9.72111 8.11891 9.75164 8.08838C9.78216 8.05785 9.82357 8.0407 9.86675 8.0407H13.7737C13.8169 8.0407 13.8583 8.05785 13.8888 8.08838C13.9194 8.11891 13.9365 8.16031 13.9365 8.20349V13.8605Z"/>
</svg>
