<!--
  - SPDX-License-Identifier: Apache-2.0
  -
  - The OpenSearch Contributors require contributions made to
  - this file be licensed under the Apache-2.0 license or a
  - compatible open source license.
  -
  - Modifications Copyright OpenSearch Contributors. See
  - GitHub history for details.
  -->
<!--
  - Copyright (C) 2004 Remix Icon
  -
  - Licensed under the Apache License, Version 2.0 (the "License");
  - you may not use this file except in compliance with the License.
  - You may obtain a copy of the License at
  -
  -         http://www.apache.org/licenses/LICENSE-2.0
  -
  - Unless required by applicable law or agreed to in writing, software
  - distributed under the License is distributed on an "AS IS" BASIS,
  - WITHOUT WARRANTIES OR CONDITIONS OF ANY KIND, either express or implied.
  - See the License for the specific language governing permissions and
  - limitations under the License.
  -->

<svg width="16" height="16" viewBox="0 0 16 16" xmlns="http://www.w3.org/2000/svg">
  <path d="M13.688 2.574v6.768a0.913 0.913 0 0 1 -0.911 0.911h-7.388l0.896 0.896a0.39 0.39 0 0 1 -0.273 0.676 0.395 0.395 0 0 1 -0.28 -0.124l-1.562 -1.562a0.391 0.391 0 0 1 0 -0.552l1.562 -1.562a0.391 0.391 0 0 1 0.552 0.552l-0.895 0.896h7.387a0.132 0.132 0 0 0 0.13 -0.131V2.574a0.132 0.132 0 0 0 -0.13 -0.131H5.487a0.132 0.132 0 0 0 -0.13 0.131v0.52a0.391 0.391 0 0 1 -0.781 0v-0.52a0.913 0.913 0 0 1 0.911 -0.911h7.289a0.913 0.913 0 0 1 0.911 0.911M10.173 12.075a0.39 0.39 0 0 0 -0.391 0.391v0.521a0.132 0.132 0 0 1 -0.13 0.13H2.362a0.132 0.132 0 0 1 -0.13 -0.13V6.218a0.132 0.132 0 0 1 0.13 -0.13h7.388l-0.896 0.895a0.391 0.391 0 1 0 0.552 0.552l1.562 -1.562a0.391 0.391 0 0 0 0 -0.552L9.407 3.859a0.391 0.391 0 0 0 -0.552 0.552l0.895 0.896H2.363a0.913 0.913 0 0 0 -0.911 0.911v6.769a0.913 0.913 0 0 0 0.911 0.911h7.289a0.913 0.913 0 0 0 0.911 -0.911v-0.521a0.391 0.391 0 0 0 -0.391 -0.391"/>
</svg>
