<!--
  - SPDX-License-Identifier: Apache-2.0
  -
  - The OpenSearch Contributors require contributions made to
  - this file be licensed under the Apache-2.0 license or a
  - compatible open source license.
  -
  - Modifications Copyright OpenSearch Contributors. See
  - GitHub history for details.
  -->
<!--
  - Copyright (C) 2004 Remix Icon
  -
  - Licensed under the Apache License, Version 2.0 (the "License");
  - you may not use this file except in compliance with the License.
  - You may obtain a copy of the License at
  -
  -         http://www.apache.org/licenses/LICENSE-2.0
  -
  - Unless required by applicable law or agreed to in writing, software
  - distributed under the License is distributed on an "AS IS" BASIS,
  - WITHOUT WARRANTIES OR CONDITIONS OF ANY KIND, either express or implied.
  - See the License for the specific language governing permissions and
  - limitations under the License.
  -->

<svg width="16" height="16" viewBox="0 0 16 16" xmlns="http://www.w3.org/2000/svg">
  <path d="m14.442 13.12 -4.049 -6.748V2.488h0.653a0.392 0.392 0 1 0 0 -0.784H5.822a0.392 0.392 0 0 0 0 0.784h0.653V6.372l-4.049 6.748a0.914 0.914 0 0 0 0.783 1.384h10.45a0.914 0.914 0 0 0 0.783 -1.384M7.203 6.682a0.376 0.376 0 0 0 0.056 -0.202V2.488h2.35v3.992q0 0.109 0.056 0.202l2.588 4.315c-0.809 0.207 -2.014 0.196 -3.642 -0.631 -1.107 -0.561 -2.155 -0.837 -3.125 -0.826zm6.568 6.972a0.132 0.132 0 0 1 -0.113 0.066H3.209a0.132 0.132 0 0 1 -0.129 -0.132q0 -0.035 0.018 -0.065l1.894 -3.161c0.972 -0.136 2.069 0.102 3.261 0.706 1.226 0.615 2.249 0.824 3.082 0.824 0.453 0.003 0.904 -0.063 1.336 -0.196l1.097 1.829a0.132 0.132 0 0 1 0.002 0.13"/>
</svg>
