<!--
  - SPDX-License-Identifier: Apache-2.0
  -
  - The OpenSearch Contributors require contributions made to
  - this file be licensed under the Apache-2.0 license or a
  - compatible open source license.
  -
  - Modifications Copyright OpenSearch Contributors. See
  - GitHub history for details.
  -->
<!--
  - Copyright (C) 2004 Remix Icon
  -
  - Licensed under the Apache License, Version 2.0 (the "License");
  - you may not use this file except in compliance with the License.
  - You may obtain a copy of the License at
  -
  -         http://www.apache.org/licenses/LICENSE-2.0
  -
  - Unless required by applicable law or agreed to in writing, software
  - distributed under the License is distributed on an "AS IS" BASIS,
  - WITHOUT WARRANTIES OR CONDITIONS OF ANY KIND, either express or implied.
  - See the License for the specific language governing permissions and
  - limitations under the License.
  -->

<svg width="16" height="16" viewBox="0 0 16 16" xmlns="http://www.w3.org/2000/svg">
  <path d="M14.7417 10.7337C14.6836 10.6969 14.6171 10.6754 14.5485 10.6713C14.4799 10.6671 14.4113 10.6804 14.3491 10.7099C14.1509 10.8036 13.9344 10.8524 13.7151 10.8531C13.4959 10.8537 13.2791 10.806 13.0803 10.7135C12.8815 10.621 12.7055 10.4858 12.5648 10.3177C12.4241 10.1495 12.3221 9.9524 12.2661 9.7404C12.2101 9.52839 12.2014 9.30665 12.2407 9.09092C12.28 8.87519 12.3663 8.67075 12.4935 8.49211C12.6207 8.31347 12.7856 8.16501 12.9766 8.05726C13.1676 7.94951 13.3799 7.88511 13.5986 7.86863C13.8566 7.84996 14.1151 7.89815 14.3491 8.00856C14.4112 8.038 14.4798 8.05125 14.5484 8.04709C14.617 8.04292 14.6835 8.02147 14.7415 7.98473C14.7996 7.94799 14.8475 7.89716 14.8807 7.83696C14.9138 7.77675 14.9312 7.70914 14.9312 7.64041V4.74005C14.9312 4.48784 14.8311 4.24597 14.6527 4.06763C14.4744 3.8893 14.2325 3.78911 13.9803 3.78911H11.3639C11.3873 3.65453 11.3992 3.51817 11.3992 3.38156C11.3987 3.06617 11.3338 2.75419 11.2085 2.46477C11.0832 2.17534 10.9 1.91456 10.6704 1.6984C10.4409 1.48084 10.1688 1.31326 9.87124 1.20628C9.57368 1.0993 9.25716 1.05524 8.9417 1.0769C8.61711 1.09781 8.3006 1.18706 8.01289 1.33879C7.72519 1.49052 7.47278 1.70131 7.2722 1.95736C7.07161 2.21342 6.92738 2.50895 6.84894 2.82461C6.7705 3.14028 6.75963 3.46895 6.81703 3.78911H4.19924C3.94703 3.78911 3.70516 3.8893 3.52682 4.06763C3.34849 4.24597 3.2483 4.48784 3.2483 4.74005V7.08547C2.86958 7.01759 2.4799 7.04542 2.11466 7.16641C1.74943 7.28741 1.42021 7.49774 1.15691 7.77829C0.858356 8.09633 0.655978 8.49242 0.573206 8.92071C0.490435 9.349 0.530657 9.79198 0.689214 10.1984C0.847771 10.6047 1.11818 10.9579 1.46914 11.217C1.82009 11.476 2.23725 11.6304 2.6723 11.6622C2.8648 11.6761 3.05827 11.6661 3.2483 11.6323V13.9777C3.2483 14.2299 3.34849 14.4718 3.52682 14.6501C3.70516 14.8285 3.94703 14.9287 4.19924 14.9287H13.9803C14.2325 14.9287 14.4744 14.8285 14.6527 14.6501C14.8311 14.4718 14.9312 14.2299 14.9312 13.9777V11.078C14.9313 11.0093 14.9139 10.9417 14.8808 10.8815C14.8476 10.8213 14.7998 10.7704 14.7417 10.7337ZM14.1162 13.9777C14.1162 14.0138 14.1018 14.0483 14.0764 14.0738C14.0509 14.0993 14.0163 14.1136 13.9803 14.1136H4.19924C4.16321 14.1136 4.12865 14.0993 4.10318 14.0738C4.0777 14.0483 4.06339 14.0138 4.06339 13.9777V11.078C4.06339 10.97 4.02045 10.8663 3.94402 10.7899C3.86759 10.7134 3.76393 10.6705 3.65584 10.6705C3.59543 10.6704 3.53577 10.6838 3.48128 10.7099C3.26088 10.8144 3.01825 10.8634 2.77458 10.8525C2.5309 10.8417 2.29359 10.7713 2.08335 10.6477C1.87311 10.524 1.69634 10.3507 1.56848 10.143C1.44062 9.93529 1.36555 9.69943 1.34982 9.45602C1.33287 9.19624 1.38409 8.93655 1.49839 8.70266C1.61269 8.46876 1.78611 8.26879 2.00147 8.12254C2.21683 7.97628 2.46666 7.88883 2.72622 7.86884C2.98578 7.84885 3.24606 7.89701 3.48128 8.00856C3.54339 8.038 3.61193 8.05125 3.68054 8.04709C3.74915 8.04292 3.81559 8.02147 3.87368 7.98473C3.93177 7.94799 3.97963 7.89716 4.0128 7.83696C4.04596 7.77675 4.06337 7.70914 4.06339 7.64041V4.74005C4.06339 4.70402 4.0777 4.66946 4.10318 4.64399C4.12865 4.61851 4.16321 4.6042 4.19924 4.6042H7.37061C7.43935 4.60418 7.50696 4.58677 7.56716 4.55361C7.62736 4.52044 7.6782 4.47258 7.71494 4.41449C7.75168 4.3564 7.77313 4.28996 7.77729 4.22135C7.78146 4.15274 7.7682 4.0842 7.73876 4.02209C7.63062 3.78866 7.58387 3.53148 7.60291 3.27492C7.61882 3.05602 7.68274 2.8433 7.79015 2.6519C7.89756 2.4605 8.04581 2.2951 8.22437 2.16748C8.40293 2.03985 8.60741 1.95312 8.82327 1.91346C9.03914 1.8738 9.2611 1.88217 9.47336 1.93799C9.68562 1.99381 9.88299 2.0957 10.0514 2.23642C10.2199 2.37714 10.3552 2.55324 10.4479 2.75219C10.5406 2.95115 10.5883 3.16808 10.5876 3.38756C10.587 3.60704 10.538 3.82368 10.4442 4.02209C10.4149 4.08389 10.4016 4.15207 10.4056 4.22034C10.4096 4.28862 10.4306 4.3548 10.4669 4.41278C10.5032 4.47077 10.5534 4.51869 10.6131 4.55214C10.6728 4.58559 10.7399 4.6035 10.8083 4.6042H13.9803C14.0163 4.6042 14.0509 4.61851 14.0764 4.64399C14.1018 4.66946 14.1162 4.70402 14.1162 4.74005V7.08615C13.796 7.02874 13.4673 7.03962 13.1517 7.11805C12.836 7.19649 12.5405 7.34073 12.2844 7.54131C12.0284 7.74189 11.8176 7.9943 11.6658 8.28201C11.5141 8.56971 11.4249 8.88622 11.4039 9.21081C11.3825 9.5262 11.4266 9.84262 11.5334 10.1401C11.6403 10.4376 11.8076 10.7098 12.0248 10.9395C12.2886 11.2194 12.6178 11.4293 12.9829 11.5504C13.3479 11.6715 13.7374 11.6998 14.1162 11.633V13.9777Z"/>
</svg>
