<!--
  - SPDX-License-Identifier: Apache-2.0
  -
  - The OpenSearch Contributors require contributions made to
  - this file be licensed under the Apache-2.0 license or a
  - compatible open source license.
  -
  - Modifications Copyright OpenSearch Contributors. See
  - GitHub history for details.
  -->
<!--
  - Copyright (C) 2004 Remix Icon
  -
  - Licensed under the Apache License, Version 2.0 (the "License");
  - you may not use this file except in compliance with the License.
  - You may obtain a copy of the License at
  -
  -         http://www.apache.org/licenses/LICENSE-2.0
  -
  - Unless required by applicable law or agreed to in writing, software
  - distributed under the License is distributed on an "AS IS" BASIS,
  - WITHOUT WARRANTIES OR CONDITIONS OF ANY KIND, either express or implied.
  - See the License for the specific language governing permissions and
  - limitations under the License.
  -->

<svg width="16" height="16" viewBox="0 0 16 16" xmlns="http://www.w3.org/2000/svg">
  <path d="M8.96079 11.2941C8.96079 11.4033 8.9174 11.5081 8.84018 11.5853C8.76296 11.6625 8.65823 11.7059 8.54902 11.7059C8.2942 11.7059 8.04983 11.6047 7.86964 11.4245C7.68946 11.2443 7.58824 10.9999 7.58824 10.7451V8C7.58824 7.9636 7.57378 7.92868 7.54804 7.90294C7.5223 7.8772 7.48738 7.86274 7.45098 7.86274C7.34177 7.86274 7.23704 7.81936 7.15982 7.74214C7.0826 7.66492 7.03922 7.56019 7.03922 7.45098C7.03922 7.34177 7.0826 7.23704 7.15982 7.15982C7.23704 7.0826 7.34177 7.03921 7.45098 7.03921C7.7058 7.03921 7.95018 7.14044 8.13036 7.32062C8.31054 7.5008 8.41177 7.74518 8.41177 8V10.7451C8.41177 10.7815 8.42623 10.8164 8.45197 10.8421C8.47771 10.8679 8.51262 10.8823 8.54902 10.8823C8.65823 10.8823 8.76296 10.9257 8.84018 11.003C8.9174 11.0802 8.96079 11.1849 8.96079 11.2941ZM7.72549 5.66667C7.86122 5.66667 7.99391 5.62642 8.10677 5.55101C8.21962 5.4756 8.30758 5.36842 8.35953 5.24302C8.41147 5.11762 8.42506 4.97963 8.39858 4.84651C8.3721 4.71338 8.30674 4.5911 8.21076 4.49512C8.11478 4.39914 7.9925 4.33378 7.85938 4.3073C7.72625 4.28082 7.58827 4.29441 7.46287 4.34636C7.33747 4.3983 7.23028 4.48626 7.15488 4.59912C7.07947 4.71197 7.03922 4.84466 7.03922 4.98039C7.03922 5.1624 7.11152 5.33696 7.24022 5.46566C7.36892 5.59436 7.54348 5.66667 7.72549 5.66667ZM15 8C15 9.38447 14.5895 10.7378 13.8203 11.889C13.0511 13.0401 11.9579 13.9373 10.6788 14.4672C9.3997 14.997 7.99224 15.1356 6.63437 14.8655C5.2765 14.5954 4.02922 13.9287 3.05026 12.9497C2.07129 11.9708 1.4046 10.7235 1.13451 9.36563C0.86441 8.00776 1.00303 6.6003 1.53285 5.32122C2.06266 4.04213 2.95987 2.94888 4.11101 2.17971C5.26215 1.41054 6.61553 1 8 1C9.85585 1.00218 11.6351 1.74038 12.9473 3.05266C14.2596 4.36494 14.9978 6.14415 15 8ZM14.1765 8C14.1765 6.77841 13.8142 5.58425 13.1355 4.56854C12.4569 3.55282 11.4922 2.76117 10.3636 2.29368C9.23503 1.8262 7.99315 1.70389 6.79503 1.94221C5.59691 2.18053 4.49637 2.76878 3.63258 3.63258C2.76878 4.49637 2.18053 5.59691 1.94221 6.79503C1.70389 7.99315 1.82621 9.23503 2.29369 10.3636C2.76117 11.4922 3.55282 12.4569 4.56854 13.1355C5.58425 13.8142 6.77841 14.1765 8 14.1765C9.63754 14.1747 11.2075 13.5233 12.3654 12.3654C13.5233 11.2075 14.1747 9.63754 14.1765 8Z"/>
</svg>
