<!--
  - SPDX-License-Identifier: Apache-2.0
  -
  - The OpenSearch Contributors require contributions made to
  - this file be licensed under the Apache-2.0 license or a
  - compatible open source license.
  -
  - Modifications Copyright OpenSearch Contributors. See
  - GitHub history for details.
  -->
<!--
  - Copyright (C) 2004 Remix Icon
  -
  - Licensed under the Apache License, Version 2.0 (the "License");
  - you may not use this file except in compliance with the License.
  - You may obtain a copy of the License at
  -
  -         http://www.apache.org/licenses/LICENSE-2.0
  -
  - Unless required by applicable law or agreed to in writing, software
  - distributed under the License is distributed on an "AS IS" BASIS,
  - WITHOUT WARRANTIES OR CONDITIONS OF ANY KIND, either express or implied.
  - See the License for the specific language governing permissions and
  - limitations under the License.
  -->

<svg width="16" height="16" viewBox="0 0 16 16" xmlns="http://www.w3.org/2000/svg">
  <path d="M9.57169 6.03641H6.42987C6.32571 6.03641 6.22582 6.07779 6.15217 6.15144C6.07852 6.22509 6.03714 6.32498 6.03714 6.42914V9.57096C6.03714 9.67512 6.07852 9.77501 6.15217 9.84866C6.22582 9.92231 6.32571 9.96368 6.42987 9.96368H9.57169C9.67585 9.96368 9.77574 9.92231 9.84939 9.84866C9.92304 9.77501 9.96442 9.67512 9.96442 9.57096V6.42914C9.96442 6.32498 9.92304 6.22509 9.84939 6.15144C9.77574 6.07779 9.67585 6.03641 9.57169 6.03641ZM9.17896 9.17823H6.8226V6.82187H9.17896V9.17823ZM14.8081 9.17823H13.6299V6.82187H14.8081C14.9122 6.82187 15.0121 6.78049 15.0858 6.70684C15.1594 6.63319 15.2008 6.5333 15.2008 6.42914C15.2008 6.32498 15.1594 6.22509 15.0858 6.15144C15.0121 6.07779 14.9122 6.03641 14.8081 6.03641H13.6299V3.28732C13.6299 3.04429 13.5333 2.81121 13.3615 2.63935C13.1896 2.4675 12.9565 2.37096 12.7135 2.37096H9.96442V1.19278C9.96442 1.08862 9.92304 0.988727 9.84939 0.915076C9.77574 0.841425 9.67585 0.800049 9.57169 0.800049C9.46753 0.800049 9.36764 0.841425 9.29399 0.915076C9.22034 0.988727 9.17896 1.08862 9.17896 1.19278V2.37096H6.8226V1.19278C6.8226 1.08862 6.78122 0.988727 6.70757 0.915076C6.63392 0.841425 6.53403 0.800049 6.42987 0.800049C6.32571 0.800049 6.22582 0.841425 6.15217 0.915076C6.07852 0.988727 6.03714 1.08862 6.03714 1.19278V2.37096H3.28805C3.04502 2.37096 2.81194 2.4675 2.64009 2.63935C2.46824 2.81121 2.37169 3.04429 2.37169 3.28732V6.03641H1.19351C1.08935 6.03641 0.989459 6.07779 0.915808 6.15144C0.842158 6.22509 0.800781 6.32498 0.800781 6.42914C0.800781 6.5333 0.842158 6.63319 0.915808 6.70684C0.989459 6.78049 1.08935 6.82187 1.19351 6.82187H2.37169V9.17823H1.19351C1.08935 9.17823 0.989459 9.21961 0.915808 9.29326C0.842158 9.36691 0.800781 9.4668 0.800781 9.57096C0.800781 9.67512 0.842158 9.77501 0.915808 9.84866C0.989459 9.92231 1.08935 9.96368 1.19351 9.96368H2.37169V12.7128C2.37169 12.9558 2.46824 13.1889 2.64009 13.3607C2.81194 13.5326 3.04502 13.6291 3.28805 13.6291H6.03714V14.8073C6.03714 14.9115 6.07852 15.0114 6.15217 15.085C6.22582 15.1587 6.32571 15.2 6.42987 15.2C6.53403 15.2 6.63392 15.1587 6.70757 15.085C6.78122 15.0114 6.8226 14.9115 6.8226 14.8073V13.6291H9.17896V14.8073C9.17896 14.9115 9.22034 15.0114 9.29399 15.085C9.36764 15.1587 9.46753 15.2 9.57169 15.2C9.67585 15.2 9.77574 15.1587 9.84939 15.085C9.92304 15.0114 9.96442 14.9115 9.96442 14.8073V13.6291H12.7135C12.9565 13.6291 13.1896 13.5326 13.3615 13.3607C13.5333 13.1889 13.6299 12.9558 13.6299 12.7128V9.96368H14.8081C14.9122 9.96368 15.0121 9.92231 15.0858 9.84866C15.1594 9.77501 15.2008 9.67512 15.2008 9.57096C15.2008 9.4668 15.1594 9.36691 15.0858 9.29326C15.0121 9.21961 14.9122 9.17823 14.8081 9.17823ZM12.8444 12.7128C12.8444 12.7475 12.8306 12.7808 12.8061 12.8053C12.7815 12.8299 12.7482 12.8437 12.7135 12.8437H3.28805C3.25333 12.8437 3.22004 12.8299 3.19549 12.8053C3.17094 12.7808 3.15714 12.7475 3.15714 12.7128V3.28732C3.15714 3.2526 3.17094 3.2193 3.19549 3.19475C3.22004 3.1702 3.25333 3.15641 3.28805 3.15641H12.7135C12.7482 3.15641 12.7815 3.1702 12.8061 3.19475C12.8306 3.2193 12.8444 3.2526 12.8444 3.28732V12.7128Z"/>
</svg>
