<!--
  - SPDX-License-Identifier: Apache-2.0
  -
  - The OpenSearch Contributors require contributions made to
  - this file be licensed under the Apache-2.0 license or a
  - compatible open source license.
  -
  - Modifications Copyright OpenSearch Contributors. See
  - GitHub history for details.
  -->
<!--
  - Copyright (C) 2004 Remix Icon
  -
  - Licensed under the Apache License, Version 2.0 (the "License");
  - you may not use this file except in compliance with the License.
  - You may obtain a copy of the License at
  -
  -         http://www.apache.org/licenses/LICENSE-2.0
  -
  - Unless required by applicable law or agreed to in writing, software
  - distributed under the License is distributed on an "AS IS" BASIS,
  - WITHOUT WARRANTIES OR CONDITIONS OF ANY KIND, either express or implied.
  - See the License for the specific language governing permissions and
  - limitations under the License.
  -->

<svg width="16" height="16" viewBox="0 0 16 16" xmlns="http://www.w3.org/2000/svg">
  <path d="M14.9726 8.36707L12.9363 3.27616C12.9027 3.19219 12.8403 3.12287 12.7604 3.08057C12.6804 3.03826 12.5881 3.02571 12.4997 3.04516L8.38182 3.96025V2.39988C8.38182 2.29862 8.34159 2.2015 8.26999 2.1299C8.19838 2.05829 8.10126 2.01807 8 2.01807C7.89874 2.01807 7.80162 2.05829 7.73001 2.1299C7.65841 2.2015 7.61818 2.29862 7.61818 2.39988V4.13016L3.33545 5.0847C3.27478 5.09818 3.21832 5.12627 3.17096 5.16653C3.12361 5.20678 3.0868 5.25799 3.06373 5.3157L1.02736 10.4066C1.00983 10.4508 1.00055 10.4978 1 10.5453C1 11.9364 2.48336 12.4544 3.41818 12.4544C4.353 12.4544 5.83636 11.9364 5.83636 10.5453C5.83621 10.4967 5.82692 10.4486 5.809 10.4034L3.93936 5.72998L7.61818 4.91225V13.2181H6.47273C6.37146 13.2181 6.27435 13.2583 6.20274 13.3299C6.13114 13.4015 6.09091 13.4986 6.09091 13.5999C6.09091 13.7011 6.13114 13.7983 6.20274 13.8699C6.27435 13.9415 6.37146 13.9817 6.47273 13.9817H9.52727C9.62854 13.9817 9.72565 13.9415 9.79726 13.8699C9.86886 13.7983 9.90909 13.7011 9.90909 13.5999C9.90909 13.4986 9.86886 13.4015 9.79726 13.3299C9.72565 13.2583 9.62854 13.2181 9.52727 13.2181H8.38182V4.74234L11.9588 3.94752L10.191 8.36707C10.1731 8.41224 10.1638 8.46038 10.1636 8.50898C10.1636 9.90007 11.647 10.4181 12.5818 10.4181C13.5166 10.4181 15 9.90007 15 8.50898C14.9998 8.46038 14.9906 8.41224 14.9726 8.36707ZM3.41818 11.6908C3.02907 11.6878 2.64683 11.588 2.30582 11.4006C1.96409 11.2014 1.78718 10.9437 1.76555 10.6134L3.42009 6.48279L5.07464 10.6134C5.01291 11.4903 3.83691 11.6908 3.41818 11.6908ZM12.5818 9.65443C12.1927 9.65139 11.8105 9.55167 11.4695 9.36425C11.1277 9.16507 10.9508 8.90734 10.9292 8.57707L12.5837 4.44643L14.2383 8.57707C14.1765 9.45398 13.0005 9.65443 12.5818 9.65443Z"/>
</svg>
