<!--
  - SPDX-License-Identifier: Apache-2.0
  -
  - The OpenSearch Contributors require contributions made to
  - this file be licensed under the Apache-2.0 license or a
  - compatible open source license.
  -
  - Modifications Copyright OpenSearch Contributors. See
  - GitHub history for details.
  -->
<!--
  - Copyright (C) 2004 Remix Icon
  -
  - Licensed under the Apache License, Version 2.0 (the "License");
  - you may not use this file except in compliance with the License.
  - You may obtain a copy of the License at
  -
  -         http://www.apache.org/licenses/LICENSE-2.0
  -
  - Unless required by applicable law or agreed to in writing, software
  - distributed under the License is distributed on an "AS IS" BASIS,
  - WITHOUT WARRANTIES OR CONDITIONS OF ANY KIND, either express or implied.
  - See the License for the specific language governing permissions and
  - limitations under the License.
  -->

<svg width="16" height="16" viewBox="0 0 16 16" xmlns="http://www.w3.org/2000/svg">
  <path d="M13.57 6.001H2.356A0.982 0.982 0 0 0 1.375 6.984v6.728a0.982 0.982 0 0 0 0.981 0.981h11.214a0.982 0.982 0 0 0 0.982 -0.981v-6.729a0.982 0.982 0 0 0 -0.982 -0.981m0.141 7.71a0.141 0.141 0 0 1 -0.141 0.14H2.356a0.141 0.141 0 0 1 -0.139 -0.141V6.984a0.141 0.141 0 0 1 0.139 -0.141h11.214a0.141 0.141 0 0 1 0.141 0.141zM2.495 4.179a0.421 0.421 0 0 1 0.421 -0.421h10.093a0.421 0.421 0 1 1 0 0.841H2.917a0.421 0.421 0 0 1 -0.421 -0.421m1.122 -2.243a0.421 0.421 0 0 1 0.421 -0.421h7.849a0.421 0.421 0 0 1 0 0.841h-7.849a0.421 0.421 0 0 1 -0.421 -0.421"/>
</svg>
