<!--
  - SPDX-License-Identifier: Apache-2.0
  -
  - The OpenSearch Contributors require contributions made to
  - this file be licensed under the Apache-2.0 license or a
  - compatible open source license.
  -
  - Modifications Copyright OpenSearch Contributors. See
  - GitHub history for details.
  -->
<!--
  - Copyright (C) 2004 Remix Icon
  -
  - Licensed under the Apache License, Version 2.0 (the "License");
  - you may not use this file except in compliance with the License.
  - You may obtain a copy of the License at
  -
  -         http://www.apache.org/licenses/LICENSE-2.0
  -
  - Unless required by applicable law or agreed to in writing, software
  - distributed under the License is distributed on an "AS IS" BASIS,
  - WITHOUT WARRANTIES OR CONDITIONS OF ANY KIND, either express or implied.
  - See the License for the specific language governing permissions and
  - limitations under the License.
  -->

<svg width="16" height="16" viewBox="0 0 16 16" xmlns="http://www.w3.org/2000/svg">
  <path d="M10.5808 9.90194C10.5808 10.01 10.5379 10.1137 10.4615 10.1901C10.385 10.2665 10.2814 10.3095 10.1733 10.3095H5.82613C5.71804 10.3095 5.61438 10.2665 5.53795 10.1901C5.46152 10.1137 5.41858 10.01 5.41858 9.90194C5.41858 9.79385 5.46152 9.69019 5.53795 9.61376C5.61438 9.53733 5.71804 9.49439 5.82613 9.49439H10.1733C10.2814 9.49439 10.385 9.53733 10.4615 9.61376C10.5379 9.69019 10.5808 9.79385 10.5808 9.90194ZM10.1733 7.32081H5.82613C5.71804 7.32081 5.61438 7.36375 5.53795 7.44018C5.46152 7.51661 5.41858 7.62027 5.41858 7.72836C5.41858 7.83644 5.46152 7.9401 5.53795 8.01653C5.61438 8.09296 5.71804 8.1359 5.82613 8.1359H10.1733C10.2814 8.1359 10.385 8.09296 10.4615 8.01653C10.5379 7.9401 10.5808 7.83644 10.5808 7.72836C10.5808 7.62027 10.5379 7.51661 10.4615 7.44018C10.385 7.36375 10.2814 7.32081 10.1733 7.32081ZM13.8412 2.83779V14.2491C13.8412 14.5013 13.741 14.7432 13.5627 14.9215C13.3844 15.0999 13.1425 15.2 12.8903 15.2H3.10915C2.85694 15.2 2.61506 15.0999 2.43673 14.9215C2.25839 14.7432 2.1582 14.5013 2.1582 14.2491V2.83779C2.1582 2.58559 2.25839 2.34371 2.43673 2.16538C2.61506 1.98704 2.85694 1.88685 3.10915 1.88685H5.6339C5.92665 1.54594 6.28962 1.27233 6.69796 1.08474C7.1063 0.897164 7.55035 0.800049 7.99971 0.800049C8.44907 0.800049 8.89312 0.897164 9.30146 1.08474C9.70979 1.27233 10.0728 1.54594 10.3655 1.88685H12.8903C13.1425 1.88685 13.3844 1.98704 13.5627 2.16538C13.741 2.34371 13.8412 2.58559 13.8412 2.83779ZM5.69028 3.92458V4.06043H10.3091V3.92458C10.3091 3.31209 10.0658 2.72467 9.63272 2.29157C9.19962 1.85847 8.61221 1.61515 7.99971 1.61515C7.38721 1.61515 6.7998 1.85847 6.36669 2.29157C5.93359 2.72467 5.69028 3.31209 5.69028 3.92458ZM13.0261 2.83779C13.0261 2.80176 13.0118 2.76721 12.9863 2.74173C12.9609 2.71626 12.9263 2.70194 12.8903 2.70194H10.875C11.0398 3.08846 11.1246 3.50438 11.1242 3.92458V4.46798C11.1242 4.57607 11.0813 4.67973 11.0049 4.75616C10.9284 4.83259 10.8248 4.87553 10.7167 4.87553H5.28273C5.17464 4.87553 5.07098 4.83259 4.99455 4.75616C4.91812 4.67973 4.87518 4.57607 4.87518 4.46798V3.92458C4.8748 3.50438 4.9596 3.08846 5.12447 2.70194H3.10915C3.07312 2.70194 3.03856 2.71626 3.01309 2.74173C2.98761 2.76721 2.9733 2.80176 2.9733 2.83779V14.2491C2.9733 14.2851 2.98761 14.3197 3.01309 14.3452C3.03856 14.3706 3.07312 14.385 3.10915 14.385H12.8903C12.9263 14.385 12.9609 14.3706 12.9863 14.3452C13.0118 14.3197 13.0261 14.2851 13.0261 14.2491V2.83779Z"/>
</svg>
