<!--
  - SPDX-License-Identifier: Apache-2.0
  -
  - The OpenSearch Contributors require contributions made to
  - this file be licensed under the Apache-2.0 license or a
  - compatible open source license.
  -
  - Modifications Copyright OpenSearch Contributors. See
  - GitHub history for details.
  -->
<!--
  - Copyright (C) 2004 Remix Icon
  -
  - Licensed under the Apache License, Version 2.0 (the "License");
  - you may not use this file except in compliance with the License.
  - You may obtain a copy of the License at
  -
  -         http://www.apache.org/licenses/LICENSE-2.0
  -
  - Unless required by applicable law or agreed to in writing, software
  - distributed under the License is distributed on an "AS IS" BASIS,
  - WITHOUT WARRANTIES OR CONDITIONS OF ANY KIND, either express or implied.
  - See the License for the specific language governing permissions and
  - limitations under the License.
  -->

<svg width="16" height="16" viewBox="0 0 16 16" xmlns="http://www.w3.org/2000/svg">
  <path d="M3.98723 11.8528C4.13524 11.6869 4.38453 11.641 4.58489 11.7561C4.78542 11.8717 4.87026 12.111 4.80071 12.3226L4.80364 12.3245L4.78801 12.3519L4.76067 12.4124L3.76067 14.1478C3.75684 14.1665 3.75805 14.1864 3.7675 14.2034C3.77792 14.2214 3.79582 14.232 3.81535 14.2376H11.2138C11.4782 14.2379 11.6926 14.4528 11.6933 14.7171C11.6933 14.982 11.4786 15.1972 11.2138 15.1976H2.88078C2.84457 15.1982 2.80744 15.194 2.77043 15.1858C2.76348 15.1843 2.75646 15.182 2.74895 15.18C2.7294 15.1747 2.70983 15.1681 2.69133 15.1604L2.63274 15.1311L2.59367 15.1058C2.53957 15.0664 2.4932 15.0165 2.45989 14.9593C2.44338 14.9305 2.4289 14.899 2.41887 14.8685L2.39739 14.7649C2.39719 14.7628 2.39756 14.7585 2.39739 14.7561L2.39641 14.6858C2.40139 14.6173 2.42235 14.5469 2.45989 14.4817L3.97942 11.8479L3.98723 11.8528ZM4.40715 1.85381C5.45795 1.65407 6.67157 1.75833 7.6591 2.04521L7.65813 2.05009C7.83964 2.11672 7.96933 2.2899 7.96965 2.49443C7.96965 2.75671 7.75728 2.96984 7.49504 2.97002C7.46206 2.97001 7.42945 2.96568 7.39836 2.95927V2.96123C6.3761 2.6782 5.49776 2.63526 4.67766 2.7747C3.8079 2.92274 3.08202 3.31467 2.70207 3.97197C2.20485 4.83414 2.39897 5.97574 3.02629 7.06279C3.66029 8.16069 4.76753 9.26391 6.22356 10.1048C7.67987 10.9455 9.18897 11.3536 10.457 11.3538L10.6904 11.3489C11.8459 11.3012 12.829 10.8955 13.2958 10.0872C13.6749 9.42961 13.6522 8.60576 13.3456 7.77861C13.0584 7.00487 12.5116 6.20284 11.7646 5.46416C11.6686 5.37454 11.6083 5.24743 11.6083 5.10576C11.6084 4.83479 11.8276 4.61476 12.0986 4.61455C12.269 4.61455 12.4187 4.70238 12.5068 4.83427C13.4054 5.70962 13.9402 6.59056 14.2763 7.55302C14.655 8.63907 14.6258 9.68974 14.121 10.5647C13.4972 11.6444 12.2771 12.2327 10.7548 12.3001C9.23325 12.3672 7.44081 11.9079 5.74699 10.93C4.05361 9.95208 2.76011 8.62966 2.05754 7.27861C1.35488 5.92646 1.25433 4.57448 1.87785 3.49443C2.38332 2.61999 3.27746 2.06875 4.40715 1.85381ZM10.9062 1.04131C11.0391 0.811959 11.3331 0.733547 11.5624 0.8665C11.7917 0.999482 11.8692 1.29344 11.7363 1.52275L8.41496 7.25224C8.28201 7.48159 7.98806 7.56 7.75871 7.42705C7.52966 7.29406 7.45215 7.00099 7.58489 6.77177L10.9062 1.04131Z"/>
</svg>
