<svg width="16" height="16" viewBox="0 0 16 16" xmlns="http://www.w3.org/2000/svg">
  <path d="M7.558 7.511V4.824a0.404 0.404 0 1 1 0.807 0V7.511a0.404 0.404 0 1 1 -0.807 0m0.403 1.749a0.672 0.672 0 1 0 0 1.344 0.672 0.672 0 0 0 0 -1.344m6.32 -7.126v3.765c0 3.492 -1.689 5.607 -3.106 6.765 -1.528 1.251 -3.044 1.673 -3.108 1.691a0.405 0.405 0 0 1 -0.212 0c-0.068 -0.019 -1.579 -0.44 -3.108 -1.691 -1.417 -1.159 -3.106 -3.273 -3.106 -6.765v-3.765a0.941 0.941 0 0 1 0.941 -0.941h10.757a0.941 0.941 0 0 1 0.941 0.941m-0.807 0a0.135 0.135 0 0 0 -0.135 -0.135H2.583a0.135 0.135 0 0 0 -0.135 0.135v3.765c0 2.537 0.937 4.598 2.786 6.121a8.847 8.847 0 0 0 2.727 1.523 8.847 8.847 0 0 0 2.727 -1.523c1.849 -1.525 2.786 -3.584 2.786 -6.121z"/>
</svg>
