<svg width="16" height="16" viewBox="0 0 16 16" xmlns="http://www.w3.org/2000/svg">
  <path d="M14.195 4.508a0.374 0.374 0 0 1 -0.501 -0.16 5.976 5.976 0 0 0 -2.127 -2.344 0.373 0.373 0 0 1 0.397 -0.631 6.776 6.776 0 0 1 2.391 2.632 0.374 0.374 0 0 1 -0.16 0.503M2.87 4.348a5.976 5.976 0 0 1 2.127 -2.344 0.374 0.374 0 0 0 -0.397 -0.631 6.776 6.776 0 0 0 -2.39 2.632 0.374 0.374 0 1 0 0.66 0.344m11.135 6.855a0.872 0.872 0 0 1 -0.746 1.31h-2.644a2.364 2.364 0 0 1 -4.665 0h-2.645a0.872 0.872 0 0 1 -0.749 -1.31c0.571 -0.986 0.875 -2.383 0.875 -4.04a4.852 4.852 0 0 1 9.704 0c0 1.679 0.295 3.04 0.875 4.04zm-4.15 1.31H6.709a1.617 1.617 0 0 0 3.146 0m3.511 -0.934c-0.649 -1.12 -0.979 -2.603 -0.979 -4.416a4.105 4.105 0 0 0 -8.211 0c0 1.814 -0.329 3.297 -0.977 4.416a0.122 0.122 0 0 0 0 0.125 0.122 0.122 0 0 0 0.105 0.062h9.954a0.122 0.122 0 0 0 0.106 -0.062 0.122 0.122 0 0 0 0 -0.125"/>
</svg>
