<svg width="16" height="16" viewBox="0 0 16 16" xmlns="http://www.w3.org/2000/svg">
  <path d="M13.747 2.226H2.378a0.904 0.904 0 0 0 -0.904 0.904v9.302a0.904 0.904 0 0 0 0.904 0.904h11.368a0.904 0.904 0 0 0 0.904 -0.904V3.13a0.904 0.904 0 0 0 -0.904 -0.904m-11.368 0.775h11.368a0.129 0.129 0 0 1 0.129 0.13v2.712H2.249V3.13a0.129 0.129 0 0 1 0.129 -0.13m-0.129 9.431V6.616h3.876v5.943h-3.746a0.129 0.129 0 0 1 -0.13 -0.129m11.497 0.129H6.899V6.617h6.976v5.814a0.129 0.129 0 0 1 -0.129 0.129"/>
</svg>
