<svg width="16" height="16" viewBox="0 0 16 16" xmlns="http://www.w3.org/2000/svg">
  <path d="M8.00078 0.800049C6.57676 0.800049 5.18471 1.22232 4.00068 2.01347C2.81664 2.80461 1.8938 3.9291 1.34885 5.24473C0.803901 6.56035 0.661317 8.00803 0.93913 9.4047C1.21694 10.8014 1.90268 12.0843 2.90962 13.0912C3.91655 14.0982 5.19947 14.7839 6.59613 15.0617C7.9928 15.3395 9.44047 15.1969 10.7561 14.652C12.0717 14.107 13.1962 13.1842 13.9874 12.0002C14.7785 10.8161 15.2008 9.42407 15.2008 8.00005C15.1985 6.09118 14.4392 4.26113 13.0895 2.91136C11.7397 1.56158 9.90965 0.802291 8.00078 0.800049ZM8.00078 14.353C6.74429 14.353 5.51601 13.9804 4.47128 13.2823C3.42654 12.5843 2.61227 11.5921 2.13143 10.4312C1.65059 9.27036 1.52478 7.993 1.76991 6.76065C2.01504 5.5283 2.6201 4.39631 3.50858 3.50784C4.39705 2.61937 5.52904 2.01431 6.76139 1.76918C7.99374 1.52405 9.2711 1.64986 10.4319 2.1307C11.5928 2.61154 12.585 3.42581 13.2831 4.47054C13.9811 5.51528 14.3537 6.74355 14.3537 8.00005C14.3519 9.68438 13.6819 11.2992 12.4909 12.4902C11.2999 13.6812 9.68511 14.3511 8.00078 14.353ZM11.1998 4.23275L6.68219 6.49158C6.59998 6.5326 6.53333 6.59924 6.49231 6.68146L4.23349 11.1991C4.20125 11.2637 4.18605 11.3354 4.18933 11.4075C4.19261 11.4797 4.21427 11.5497 4.25225 11.6111C4.29022 11.6725 4.34326 11.7232 4.40632 11.7583C4.46938 11.7934 4.54037 11.8118 4.61255 11.8118C4.67818 11.8117 4.74291 11.7965 4.80172 11.7673L9.31937 9.50852C9.40158 9.46749 9.46823 9.40085 9.50925 9.31863L11.7681 4.80099C11.8078 4.72148 11.8216 4.63148 11.8073 4.54373C11.7931 4.45598 11.7516 4.37494 11.6888 4.31208C11.6259 4.24922 11.5448 4.20773 11.4571 4.1935C11.3694 4.17926 11.2793 4.19299 11.1998 4.23275ZM8.81466 8.81393L5.55984 10.441L7.18337 7.18616L10.4382 5.56264L8.81466 8.81393Z"/>
</svg>
