<svg width="16" height="16" viewBox="0 0 16 16" xmlns="http://www.w3.org/2000/svg">
  <path d="M13.3063 1.5H2.69419C2.44792 1.5 2.21173 1.59783 2.03759 1.77197C1.86346 1.94611 1.76562 2.18229 1.76562 2.42856V6.14282C1.76562 9.58778 3.43173 11.6744 4.82988 12.8179C6.33747 14.0515 7.83246 14.4687 7.89547 14.486C7.96408 14.5047 8.03645 14.5047 8.10506 14.486C8.16807 14.4687 9.66305 14.0515 11.1706 12.8179C12.5688 11.6744 14.2349 9.58778 14.2349 6.14282V2.42856C14.2349 2.18229 14.1371 1.94611 13.9629 1.77197C13.7888 1.59783 13.5526 1.5 13.3063 1.5ZM10.6904 12.1825C9.89029 12.8395 8.97928 13.3485 8.00026 13.6854C7.02111 13.3488 6.11005 12.8398 5.31008 12.1825C4.63615 11.6344 4.06253 10.9735 3.61479 10.2292L8.00026 7.15893L12.3857 10.2292C11.938 10.9735 11.3644 11.6344 10.6904 12.1825ZM13.439 6.14282C13.439 7.38643 13.2108 8.51397 12.7572 9.51748L8.22842 6.3471C8.16154 6.3003 8.08189 6.2752 8.00026 6.2752C7.91863 6.2752 7.83898 6.3003 7.7721 6.3471L3.24337 9.51748C2.7897 8.51397 2.56154 7.38643 2.56154 6.14282V2.42856C2.56154 2.39338 2.57551 2.35964 2.60039 2.33476C2.62527 2.30989 2.65901 2.29591 2.69419 2.29591H13.3063C13.3415 2.29591 13.3753 2.30989 13.4001 2.33476C13.425 2.35964 13.439 2.39338 13.439 2.42856V6.14282Z"/>
</svg>
