<svg width="16" height="16" viewBox="0 0 16 16" xmlns="http://www.w3.org/2000/svg">
  <path clip-rule="evenodd" d="M10.3145 5.03174C11.3313 5.03174 12.1799 4.31213 12.3793 3.35439H14.2121C14.3244 3.35439 14.4327 3.3096 14.5121 3.23018C14.5914 3.15084 14.6355 3.0431 14.6355 2.93096C14.6355 2.81866 14.5915 2.71038 14.5121 2.63096C14.4327 2.55153 14.3244 2.50674 14.2121 2.50674H12.3824C12.1894 1.54085 11.3371 0.812988 10.3145 0.812988C9.29178 0.812988 8.43954 1.54085 8.24648 2.50674H1.78867C1.67646 2.50676 1.56884 2.55167 1.48945 2.63096C1.41003 2.71038 1.36523 2.81863 1.36523 2.93096C1.36532 3.04317 1.4101 3.15082 1.48945 3.23018C1.56885 3.30951 1.67643 3.35437 1.78867 3.35439H8.24961C8.44898 4.31213 9.29756 5.03174 10.3145 5.03174ZM10.3145 4.15205C9.63549 4.15205 9.08477 3.60133 9.08477 2.92236C9.08477 2.2434 9.63549 1.69268 10.3145 1.69268C10.9934 1.69268 11.5441 2.2434 11.5441 2.92236C11.5441 3.60133 10.9934 4.15205 10.3145 4.15205Z"/>
  <path clip-rule="evenodd" d="M5.91249 10.1287C6.9324 10.1287 7.78282 9.40473 7.9789 8.44274L14.2121 8.43643C14.3244 8.43643 14.4327 8.39163 14.5121 8.31221C14.5913 8.23281 14.6355 8.12517 14.6355 8.01299C14.6355 7.9008 14.5913 7.79317 14.5121 7.71377C14.4327 7.63434 14.3244 7.58955 14.2121 7.58955L7.9789 7.59587C7.78282 6.63388 6.9324 5.90994 5.91249 5.90993C4.89258 5.90993 4.04217 6.63387 3.84609 7.59587L1.78867 7.58955C1.67638 7.58958 1.56886 7.63436 1.48945 7.71377C1.41005 7.79319 1.36523 7.90068 1.36523 8.01299C1.36523 8.12529 1.41005 8.23278 1.48945 8.31221C1.56886 8.39161 1.67638 8.4364 1.78867 8.43643L3.84609 8.44274C4.04217 9.40474 4.89258 10.1287 5.91249 10.1287ZM5.91249 9.24899C5.23353 9.24899 4.68281 8.69827 4.68281 8.0193C4.68281 7.34034 5.23353 6.78962 5.91249 6.78962C6.59145 6.78963 7.14218 7.34035 7.14218 8.0193C7.14218 8.69826 6.59145 9.24898 5.91249 9.24899Z"/>
  <path clip-rule="evenodd" d="M10.3113 15.1868C11.334 15.1868 12.1862 14.4589 12.3793 13.493L14.2121 13.5192C14.3244 13.5192 14.4327 13.4744 14.5121 13.395C14.5915 13.3156 14.6355 13.2073 14.6355 13.095C14.6355 12.9829 14.5914 12.8751 14.5121 12.7958C14.4327 12.7164 14.3244 12.6716 14.2121 12.6716L12.3762 12.6454C12.1768 11.6876 11.3282 10.968 10.3113 10.968C9.29444 10.968 8.44585 11.6876 8.24648 12.6454L1.78867 12.6716C1.67643 12.6716 1.56885 12.7165 1.48945 12.7958C1.4101 12.8752 1.36532 12.9828 1.36523 13.095C1.36523 13.2073 1.41003 13.3156 1.48945 13.395C1.56884 13.4743 1.67646 13.5192 1.78867 13.5192L8.24336 13.493C8.43641 14.4589 9.28866 15.1868 10.3113 15.1868ZM10.3113 14.3071C9.63236 14.3071 9.08164 13.7564 9.08164 13.0774C9.08164 12.3984 9.63236 11.8477 10.3113 11.8477C10.9903 11.8477 11.541 12.3984 11.541 13.0774C11.541 13.7564 10.9903 14.3071 10.3113 14.3071Z"/>
</svg>
