<svg width="16" height="16" viewBox="0 0 16 16" xmlns="http://www.w3.org/2000/svg">
  <path clip-rule="evenodd" d="M6.951 3.181a3.981 3.981 0 0 1 3.98 3.98l-0.006 0.204a3.981 3.981 0 0 1 -3.975 3.776l-0.205 -0.006a3.98 3.98 0 0 1 0.205 -7.954m0 0.798a3.181 3.181 0 1 0 0 6.364 3.181 3.181 0 0 0 0 -6.364"/>
  <path clip-rule="evenodd" d="M6.951 1.192a5.97 5.97 0 0 1 5.97 5.969l-0.008 0.307a5.929 5.929 0 0 1 -0.659 2.432l1.373 1.371a1.815 1.815 0 0 1 -2.566 2.566l-1.371 -1.371a5.929 5.929 0 0 1 -2.74 0.665l-0.307 -0.008a5.97 5.97 0 0 1 0.307 -11.93m4.919 9.348a6.024 6.024 0 0 1 -1.539 1.54l1.244 1.244a1.089 1.089 0 0 0 1.539 -1.54zM6.951 1.99a5.172 5.172 0 1 0 0.001 10.344 5.172 5.172 0 0 0 -0.001 -10.344"/>
</svg>
