<!--
  - SPDX-License-Identifier: Apache-2.0
  -
  - The OpenSearch Contributors require contributions made to
  - this file be licensed under the Apache-2.0 license or a
  - compatible open source license.
  -
  - Modifications Copyright OpenSearch Contributors. See
  - GitHub history for details.
  -->
<!--
  - Copyright (C) 2004 Remix Icon
  -
  - Licensed under the Apache License, Version 2.0 (the "License");
  - you may not use this file except in compliance with the License.
  - You may obtain a copy of the License at
  -
  -         http://www.apache.org/licenses/LICENSE-2.0
  -
  - Unless required by applicable law or agreed to in writing, software
  - distributed under the License is distributed on an "AS IS" BASIS,
  - WITHOUT WARRANTIES OR CONDITIONS OF ANY KIND, either express or implied.
  - See the License for the specific language governing permissions and
  - limitations under the License.
  -->

<svg width="16" height="16" viewBox="0 0 16 16" xmlns="http://www.w3.org/2000/svg">
  <path d="M13.1432 5.94535C13.1452 6.72495 12.969 7.4947 12.6282 8.19585C12.2874 8.897 11.7909 9.51101 11.1766 9.99102C11.0448 10.0923 10.938 10.2223 10.8642 10.3712C10.7904 10.52 10.7516 10.6838 10.7507 10.8499V11.2088C10.7507 11.4309 10.6625 11.6439 10.5054 11.8009C10.3484 11.9579 10.1354 12.0461 9.91333 12.0461H6.08538C5.8633 12.0461 5.65031 11.9579 5.49328 11.8009C5.33624 11.6439 5.24802 11.4309 5.24802 11.2088V10.8499C5.24786 10.6855 5.21004 10.5233 5.13746 10.3758C5.06489 10.2282 4.95948 10.0993 4.82934 9.99879C4.21699 9.52191 3.7211 8.91204 3.37915 8.21529C3.03721 7.51855 2.85816 6.75318 2.85555 5.97705C2.84 3.18863 5.09191 0.868528 7.87555 0.801539C8.56139 0.785026 9.24361 0.905875 9.88204 1.15697C10.5205 1.40807 11.1022 1.78434 11.5931 2.26364C12.0839 2.74294 12.4739 3.31559 12.7401 3.94787C13.0063 4.58016 13.1434 5.25931 13.1432 5.94535ZM12.4254 5.94535C12.4256 5.35499 12.3077 4.77056 12.0786 4.22647C11.8495 3.68237 11.5138 3.18961 11.0914 2.77718C10.669 2.36475 10.1684 2.04099 9.61898 1.82496C9.06956 1.60893 8.48248 1.505 7.8923 1.51928C5.49743 1.57909 3.56013 3.57322 3.57329 5.97047C3.57556 6.63843 3.72965 7.29713 4.02393 7.89678C4.31821 8.49642 4.74497 9.02132 5.27194 9.43178C5.48834 9.59936 5.66341 9.81435 5.78369 10.0602C5.90397 10.3061 5.96626 10.5762 5.96576 10.8499V11.2088C5.96576 11.2405 5.97836 11.2709 6.0008 11.2934C6.02323 11.3158 6.05366 11.3284 6.08538 11.3284H9.91333C9.94506 11.3284 9.97549 11.3158 9.99792 11.2934C10.0204 11.2709 10.033 11.2405 10.033 11.2088V10.8499C10.0337 10.5752 10.0971 10.3043 10.2184 10.0578C10.3397 9.81135 10.5156 9.59579 10.7328 9.42759C11.2617 9.01459 11.6892 8.48612 11.9825 7.88258C12.2759 7.27904 12.4274 6.61641 12.4254 5.94535ZM11.2244 5.40704C11.1047 4.73834 10.7831 4.12235 10.3027 3.64199C9.82236 3.16163 9.20637 2.83997 8.53766 2.7203C8.49117 2.71245 8.44357 2.71383 8.39761 2.72436C8.35164 2.7349 8.3082 2.75439 8.26977 2.78172C8.19215 2.8369 8.13963 2.92066 8.12377 3.01457C8.1079 3.10848 8.13 3.20485 8.18518 3.28247C8.24037 3.36009 8.32413 3.41261 8.41804 3.42847C9.45757 3.60312 10.3398 4.48594 10.5162 5.52667C10.5304 5.61023 10.5736 5.68609 10.6383 5.74083C10.703 5.79557 10.785 5.82564 10.8697 5.82573C10.8898 5.82559 10.9097 5.82399 10.9295 5.82094C10.9761 5.81318 11.0207 5.79632 11.0607 5.7713C11.1008 5.74629 11.1355 5.71363 11.1629 5.67518C11.1902 5.63673 11.2098 5.59325 11.2203 5.54724C11.2309 5.50123 11.2323 5.45359 11.2244 5.40704Z"/>
  <path d="M10.7512 13.2642C10.7512 13.3594 10.7134 13.4507 10.6461 13.518C10.5788 13.5853 10.4875 13.6231 10.3924 13.6231H5.60742C5.51225 13.6231 5.42097 13.5853 5.35366 13.518C5.28636 13.4507 5.24855 13.3594 5.24855 13.2642C5.24855 13.1691 5.28636 13.0778 5.35366 13.0105C5.42097 12.9432 5.51225 12.9054 5.60742 12.9054H10.3924C10.4875 12.9054 10.5788 12.9432 10.6461 13.0105C10.7134 13.0778 10.7512 13.1691 10.7512 13.2642Z"/>
  <path d="M9.98564 14.8412C9.98564 14.9364 9.94784 15.0276 9.88053 15.0949C9.81323 15.1622 9.72195 15.2 9.62677 15.2H6.37301C6.27784 15.2 6.18656 15.1622 6.11926 15.0949C6.05195 15.0276 6.01414 14.9364 6.01414 14.8412C6.01414 14.746 6.05195 14.6547 6.11926 14.5874C6.18656 14.5201 6.27784 14.4823 6.37301 14.4823H9.62677C9.72195 14.4823 9.81323 14.5201 9.88053 14.5874C9.94784 14.6547 9.98564 14.746 9.98564 14.8412Z"/>
</svg>

