<!--
  - SPDX-License-Identifier: Apache-2.0
  -
  - The OpenSearch Contributors require contributions made to
  - this file be licensed under the Apache-2.0 license or a
  - compatible open source license.
  -
  - Modifications Copyright OpenSearch Contributors. See
  - GitHub history for details.
  -->
<!--
  - Copyright (C) 2004 Remix Icon
  -
  - Licensed under the Apache License, Version 2.0 (the "License");
  - you may not use this file except in compliance with the License.
  - You may obtain a copy of the License at
  -
  -         http://www.apache.org/licenses/LICENSE-2.0
  -
  - Unless required by applicable law or agreed to in writing, software
  - distributed under the License is distributed on an "AS IS" BASIS,
  - WITHOUT WARRANTIES OR CONDITIONS OF ANY KIND, either express or implied.
  - See the License for the specific language governing permissions and
  - limitations under the License.
  -->

<svg width="16" height="16" viewBox="0 0 16 16" xmlns="http://www.w3.org/2000/svg">
  <path clip-rule="evenodd" d="M6.951 3.181a3.981 3.981 0 0 1 3.98 3.98l-0.006 0.204a3.981 3.981 0 0 1 -3.975 3.776l-0.205 -0.006a3.98 3.98 0 0 1 0.205 -7.954m0 0.798a3.181 3.181 0 1 0 0 6.364 3.181 3.181 0 0 0 0 -6.364"/>
  <path clip-rule="evenodd" d="M6.951 1.192a5.97 5.97 0 0 1 5.97 5.969l-0.008 0.307a5.929 5.929 0 0 1 -0.659 2.432l1.373 1.371a1.815 1.815 0 0 1 -2.566 2.566l-1.371 -1.371a5.929 5.929 0 0 1 -2.74 0.665l-0.307 -0.008a5.97 5.97 0 0 1 0.307 -11.93m4.919 9.348a6.024 6.024 0 0 1 -1.539 1.54l1.244 1.244a1.089 1.089 0 0 0 1.539 -1.54zM6.951 1.99a5.172 5.172 0 1 0 0.001 10.344 5.172 5.172 0 0 0 -0.001 -10.344"/>
</svg>
